<?xml version="1.0" encoding="UTF-8"?><svg xmlns="http://www.w3.org/2000/svg" width="1200" height="675" viewBox="0 0 1200 675"><g id="White_BGD"><rect x=".74" y="-1.55" width="1200" height="675" fill="#fff"/></g><g id="_3-title-4-HR"><rect x="972.36" y="13.82" width="195.88" height="649.79" fill="#e8ecec"/><rect x="982.09" y="352.86" width="174.41" height="300.56" fill="#b0add6"/><rect x="982.57" y="44.64" width="174.43" height="297.9" fill="#b0add6"/><rect x="38.01" y="408.05" width="225.58" height="253.5" fill="#e8ecec"/><text transform="translate(115.17 428.14)" fill="#030404" font-family="Arial-BoldMT, Arial" font-size="17.47"><tspan x="0" y="0">Security</tspan></text><rect x="48.02" y="436.64" width="204.01" height="215.3" fill="#d7969f"/><text transform="translate(59.43 456.69)" fill="#030404" font-family="Arial-BoldMT, Arial" font-size="14.56"><tspan x="0" y="0">Hardware Security Engine</tspan></text><rect x="62.01" y="467.08" width="177.2" height="43.57" fill="#ecb7c5"/><g><path d="M79.51,486.36l4-10.42h1.49l4.27,10.42h-1.57l-1.22-3.16h-4.36l-1.14,3.16h-1.46Zm3.01-4.28h3.53l-1.09-2.89c-.33-.88-.58-1.6-.74-2.16-.13,.67-.32,1.33-.56,1.99l-1.14,3.06Z" fill="#030404"/><path d="M89.69,484.11l1.27-.2c.07,.51,.27,.9,.59,1.17,.32,.27,.78,.4,1.36,.4s1.02-.12,1.31-.36,.43-.52,.43-.84c0-.29-.13-.52-.38-.68-.18-.11-.61-.26-1.31-.43-.94-.24-1.59-.44-1.95-.62-.36-.17-.64-.41-.82-.72-.19-.31-.28-.64-.28-1.01,0-.34,.08-.65,.23-.93,.15-.29,.36-.53,.63-.71,.2-.15,.47-.27,.81-.37s.71-.15,1.11-.15c.59,0,1.11,.09,1.56,.26,.45,.17,.78,.4,.99,.69,.21,.29,.36,.68,.44,1.17l-1.25,.17c-.06-.39-.22-.69-.49-.91-.27-.22-.66-.33-1.15-.33-.59,0-1.01,.1-1.26,.29-.25,.19-.38,.42-.38,.68,0,.17,.05,.32,.16,.45,.1,.14,.27,.25,.49,.34,.13,.05,.5,.16,1.13,.33,.91,.24,1.54,.44,1.89,.59,.36,.15,.64,.38,.84,.67,.2,.29,.31,.66,.31,1.09s-.12,.83-.37,1.21c-.25,.38-.61,.67-1.08,.87s-1,.31-1.59,.31c-.98,0-1.73-.2-2.24-.61-.51-.41-.84-1.01-.98-1.81Z" fill="#030404"/><path d="M97.43,489.27l-.14-1.2c.28,.08,.52,.11,.73,.11,.28,0,.51-.05,.68-.14,.17-.09,.31-.23,.42-.4,.08-.13,.21-.45,.39-.95,.02-.07,.06-.18,.11-.31l-2.86-7.56h1.38l1.57,4.37c.2,.55,.39,1.14,.55,1.75,.15-.59,.32-1.16,.53-1.72l1.61-4.4h1.28l-2.87,7.68c-.31,.83-.55,1.4-.72,1.71-.23,.42-.49,.73-.78,.93-.29,.2-.64,.29-1.05,.29-.25,0-.52-.05-.82-.16Z" fill="#030404"/><path d="M104.76,486.36v-7.55h1.14v1.06c.24-.37,.55-.67,.95-.89,.39-.22,.84-.34,1.34-.34,.56,0,1.02,.12,1.38,.35s.61,.56,.76,.97c.6-.88,1.37-1.32,2.33-1.32,.75,0,1.32,.21,1.73,.62,.4,.42,.6,1.05,.6,1.92v5.18h-1.27v-4.75c0-.51-.04-.88-.12-1.11-.08-.23-.23-.41-.45-.54s-.47-.21-.77-.21c-.53,0-.97,.18-1.32,.53-.35,.35-.53,.92-.53,1.7v4.39h-1.28v-4.9c0-.57-.1-1-.31-1.28-.21-.29-.55-.43-1.02-.43-.36,0-.69,.09-1,.28s-.53,.47-.66,.83c-.14,.36-.21,.89-.21,1.58v3.92h-1.28Z" fill="#030404"/><path d="M116.89,486.36v-7.55h1.14v1.06c.24-.37,.55-.67,.95-.89,.39-.22,.84-.34,1.34-.34,.56,0,1.02,.12,1.38,.35s.61,.56,.76,.97c.6-.88,1.37-1.32,2.33-1.32,.75,0,1.32,.21,1.73,.62,.4,.42,.6,1.05,.6,1.92v5.18h-1.27v-4.75c0-.51-.04-.88-.12-1.11-.08-.23-.23-.41-.45-.54s-.47-.21-.77-.21c-.53,0-.97,.18-1.32,.53-.35,.35-.53,.92-.53,1.7v4.39h-1.28v-4.9c0-.57-.1-1-.31-1.28-.21-.29-.55-.43-1.02-.43-.36,0-.69,.09-1,.28s-.53,.47-.66,.83c-.14,.36-.21,.89-.21,1.58v3.92h-1.28Z" fill="#030404"/><path d="M134.18,483.93l1.32,.16c-.21,.77-.59,1.37-1.16,1.8-.56,.43-1.28,.64-2.16,.64-1.1,0-1.98-.34-2.63-1.02-.65-.68-.97-1.63-.97-2.86s.33-2.26,.98-2.96c.65-.7,1.5-1.05,2.54-1.05s1.83,.34,2.47,1.03c.64,.69,.96,1.65,.96,2.9,0,.08,0,.19,0,.34h-5.63c.05,.83,.28,1.46,.7,1.91,.42,.44,.95,.66,1.58,.66,.47,0,.87-.12,1.2-.37,.33-.25,.59-.64,.79-1.18Zm-4.2-2.07h4.21c-.06-.64-.22-1.11-.48-1.43-.41-.49-.94-.74-1.59-.74-.59,0-1.08,.2-1.48,.59s-.62,.92-.66,1.58Z" fill="#030404"/><path d="M139.9,485.21l.19,1.13c-.36,.08-.68,.11-.97,.11-.46,0-.82-.07-1.08-.22-.26-.15-.44-.34-.54-.58-.1-.24-.16-.74-.16-1.51v-4.34h-.94v-1h.94v-1.87l1.27-.77v2.64h1.29v1h-1.29v4.41c0,.37,.02,.6,.07,.7,.04,.1,.12,.19,.22,.25,.1,.06,.25,.09,.44,.09,.14,0,.33-.02,.56-.05Z" fill="#030404"/><path d="M141.14,486.36v-7.55h1.15v1.14c.29-.54,.57-.89,.81-1.06,.25-.17,.52-.26,.82-.26,.43,0,.87,.14,1.31,.41l-.44,1.19c-.31-.18-.63-.28-.94-.28-.28,0-.53,.08-.75,.25-.22,.17-.38,.4-.48,.7-.14,.45-.21,.95-.21,1.49v3.95h-1.28Z" fill="#030404"/><path d="M146.01,477.41v-1.47h1.28v1.47h-1.28Zm0,8.95v-7.55h1.28v7.55h-1.28Z" fill="#030404"/><path d="M154.16,483.59l1.26,.16c-.14,.87-.49,1.55-1.06,2.04-.57,.49-1.26,.74-2.09,.74-1.03,0-1.86-.34-2.49-1.01-.63-.67-.94-1.64-.94-2.9,0-.81,.13-1.53,.4-2.14,.27-.61,.68-1.07,1.23-1.38,.55-.31,1.15-.46,1.8-.46,.82,0,1.49,.21,2.01,.62,.52,.42,.86,1,1,1.77l-1.24,.19c-.12-.51-.33-.89-.63-1.14-.3-.26-.66-.38-1.09-.38-.64,0-1.17,.23-1.57,.69s-.6,1.19-.6,2.19,.19,1.75,.58,2.21c.39,.46,.9,.69,1.52,.69,.5,0,.92-.15,1.26-.46,.34-.31,.55-.78,.64-1.42Z" fill="#030404"/><path d="M160.77,486.36v-10.42h1.38v4.28h5.42v-4.28h1.38v10.42h-1.38v-4.91h-5.42v4.91h-1.38Z" fill="#030404"/><path d="M176,485.43c-.47,.4-.93,.69-1.37,.85s-.91,.25-1.41,.25c-.83,0-1.47-.2-1.91-.61-.45-.41-.67-.92-.67-1.55,0-.37,.08-.71,.25-1.01,.17-.31,.39-.55,.66-.74,.27-.18,.58-.32,.92-.42,.25-.07,.63-.13,1.14-.19,1.03-.12,1.79-.27,2.28-.44,0-.17,0-.29,0-.33,0-.52-.12-.89-.36-1.1-.33-.29-.81-.43-1.46-.43-.6,0-1.05,.11-1.33,.32s-.5,.58-.64,1.12l-1.25-.17c.11-.54,.3-.97,.56-1.3,.26-.33,.64-.58,1.13-.76s1.06-.27,1.71-.27,1.17,.08,1.57,.23c.4,.15,.7,.34,.89,.57,.19,.23,.32,.52,.4,.87,.04,.22,.06,.61,.06,1.18v1.71c0,1.19,.03,1.94,.08,2.26,.05,.32,.16,.62,.32,.91h-1.34c-.13-.27-.22-.58-.26-.93Zm-.11-2.86c-.46,.19-1.16,.35-2.09,.48-.53,.08-.9,.16-1.12,.26-.22,.1-.39,.23-.5,.42-.12,.18-.18,.39-.18,.61,0,.34,.13,.62,.39,.85,.26,.23,.64,.34,1.13,.34s.93-.11,1.32-.32c.38-.22,.67-.51,.85-.88,.14-.29,.21-.72,.21-1.28v-.47Z" fill="#030404"/><path d="M179.15,486.36v-7.55h1.15v1.14c.29-.54,.57-.89,.81-1.06,.25-.17,.52-.26,.82-.26,.43,0,.87,.14,1.31,.41l-.44,1.19c-.31-.18-.63-.28-.94-.28-.28,0-.53,.08-.75,.25-.22,.17-.38,.4-.48,.7-.14,.45-.21,.95-.21,1.49v3.95h-1.28Z" fill="#030404"/><path d="M188.91,486.36v-.95c-.48,.75-1.18,1.12-2.11,1.12-.6,0-1.16-.17-1.66-.5-.5-.33-.9-.79-1.17-1.39-.28-.59-.42-1.28-.42-2.05s.13-1.44,.38-2.05c.25-.61,.63-1.08,1.13-1.41,.5-.33,1.06-.49,1.68-.49,.46,0,.86,.1,1.22,.29,.36,.19,.64,.44,.87,.75v-3.74h1.27v10.42h-1.19Zm-4.04-3.77c0,.97,.2,1.69,.61,2.17s.89,.72,1.44,.72,1.03-.23,1.43-.69c.39-.46,.59-1.16,.59-2.09,0-1.03-.2-1.79-.6-2.28s-.89-.72-1.47-.72-1.04,.23-1.43,.7c-.38,.46-.57,1.2-.57,2.2Z" fill="#030404"/><path d="M193.51,486.36l-2.31-7.55h1.32l1.2,4.36,.45,1.62c.02-.08,.15-.6,.39-1.56l1.2-4.42h1.31l1.13,4.38,.38,1.44,.43-1.46,1.29-4.36h1.24l-2.36,7.55h-1.33l-1.2-4.52-.29-1.29-1.53,5.81h-1.34Z" fill="#030404"/><path d="M207.55,485.43c-.47,.4-.93,.69-1.37,.85s-.91,.25-1.41,.25c-.83,0-1.47-.2-1.91-.61-.45-.41-.67-.92-.67-1.55,0-.37,.08-.71,.25-1.01,.17-.31,.39-.55,.66-.74,.27-.18,.58-.32,.92-.42,.25-.07,.63-.13,1.14-.19,1.03-.12,1.79-.27,2.28-.44,0-.17,0-.29,0-.33,0-.52-.12-.89-.36-1.1-.33-.29-.81-.43-1.46-.43-.6,0-1.05,.11-1.33,.32s-.5,.58-.64,1.12l-1.25-.17c.11-.54,.3-.97,.56-1.3,.26-.33,.64-.58,1.13-.76s1.06-.27,1.71-.27,1.17,.08,1.57,.23c.4,.15,.7,.34,.89,.57,.19,.23,.32,.52,.4,.87,.04,.22,.06,.61,.06,1.18v1.71c0,1.19,.03,1.94,.08,2.26,.05,.32,.16,.62,.32,.91h-1.34c-.13-.27-.22-.58-.26-.93Zm-.11-2.86c-.46,.19-1.16,.35-2.09,.48-.53,.08-.9,.16-1.12,.26-.22,.1-.39,.23-.5,.42-.12,.18-.18,.39-.18,.61,0,.34,.13,.62,.39,.85,.26,.23,.64,.34,1.13,.34s.93-.11,1.32-.32c.38-.22,.67-.51,.85-.88,.14-.29,.21-.72,.21-1.28v-.47Z" fill="#030404"/><path d="M210.71,486.36v-7.55h1.15v1.14c.29-.54,.57-.89,.81-1.06,.25-.17,.52-.26,.82-.26,.43,0,.87,.14,1.31,.41l-.44,1.19c-.31-.18-.63-.28-.94-.28-.28,0-.53,.08-.75,.25-.22,.17-.38,.4-.48,.7-.14,.45-.21,.95-.21,1.49v3.95h-1.28Z" fill="#030404"/><path d="M220.74,483.93l1.32,.16c-.21,.77-.59,1.37-1.16,1.8-.56,.43-1.28,.64-2.16,.64-1.1,0-1.98-.34-2.63-1.02-.65-.68-.97-1.63-.97-2.86s.33-2.26,.98-2.96c.65-.7,1.5-1.05,2.54-1.05s1.83,.34,2.47,1.03c.64,.69,.96,1.65,.96,2.9,0,.08,0,.19,0,.34h-5.63c.05,.83,.28,1.46,.7,1.91,.42,.44,.95,.66,1.58,.66,.47,0,.87-.12,1.2-.37,.33-.25,.59-.64,.79-1.18Zm-4.2-2.07h4.21c-.06-.64-.22-1.11-.48-1.43-.41-.49-.94-.74-1.59-.74-.59,0-1.08,.2-1.48,.59s-.62,.92-.66,1.58Z" fill="#030404"/><path d="M110.65,503.83l4-10.42h1.49l4.27,10.42h-1.57l-1.22-3.16h-4.36l-1.14,3.16h-1.46Zm3.01-4.28h3.53l-1.09-2.89c-.33-.88-.58-1.6-.74-2.16-.13,.67-.32,1.33-.56,1.99l-1.14,3.06Z" fill="#030404"/><path d="M126.26,501.06l1.26,.16c-.14,.87-.49,1.55-1.06,2.04-.57,.49-1.26,.74-2.09,.74-1.03,0-1.86-.34-2.49-1.01-.63-.67-.94-1.64-.94-2.9,0-.81,.13-1.53,.4-2.14,.27-.61,.68-1.07,1.23-1.38,.55-.31,1.15-.46,1.8-.46,.82,0,1.49,.21,2.01,.62,.52,.42,.86,1,1,1.77l-1.24,.19c-.12-.51-.33-.89-.63-1.14-.3-.26-.66-.38-1.09-.38-.64,0-1.17,.23-1.57,.69s-.6,1.19-.6,2.19,.19,1.75,.58,2.21c.39,.46,.9,.69,1.52,.69,.5,0,.92-.15,1.26-.46,.34-.31,.55-.78,.64-1.42Z" fill="#030404"/><path d="M133.54,501.06l1.26,.16c-.14,.87-.49,1.55-1.06,2.04-.57,.49-1.26,.74-2.09,.74-1.03,0-1.86-.34-2.49-1.01-.63-.67-.94-1.64-.94-2.9,0-.81,.13-1.53,.4-2.14,.27-.61,.68-1.07,1.23-1.38,.55-.31,1.15-.46,1.8-.46,.82,0,1.49,.21,2.01,.62,.52,.42,.86,1,1,1.77l-1.24,.19c-.12-.51-.33-.89-.63-1.14-.3-.26-.66-.38-1.09-.38-.64,0-1.17,.23-1.57,.69s-.6,1.19-.6,2.19,.19,1.75,.58,2.21c.39,.46,.9,.69,1.52,.69,.5,0,.92-.15,1.26-.46,.34-.31,.55-.78,.64-1.42Z" fill="#030404"/><path d="M141.06,501.4l1.32,.16c-.21,.77-.59,1.37-1.16,1.8-.56,.43-1.28,.64-2.16,.64-1.1,0-1.98-.34-2.63-1.02-.65-.68-.97-1.63-.97-2.86s.33-2.26,.98-2.96c.65-.7,1.5-1.05,2.54-1.05s1.83,.34,2.47,1.03c.64,.69,.96,1.65,.96,2.9,0,.08,0,.19,0,.34h-5.63c.05,.83,.28,1.46,.7,1.91,.42,.44,.95,.66,1.58,.66,.47,0,.87-.12,1.2-.37,.33-.25,.59-.64,.79-1.18Zm-4.2-2.07h4.21c-.06-.64-.22-1.11-.48-1.43-.41-.49-.94-.74-1.59-.74-.59,0-1.08,.2-1.48,.59s-.62,.92-.66,1.58Z" fill="#030404"/><path d="M143.96,503.83v-10.42h1.28v10.42h-1.28Z" fill="#030404"/><path d="M152.39,501.4l1.32,.16c-.21,.77-.59,1.37-1.16,1.8-.56,.43-1.28,.64-2.16,.64-1.1,0-1.98-.34-2.63-1.02-.65-.68-.97-1.63-.97-2.86s.33-2.26,.98-2.96c.65-.7,1.5-1.05,2.54-1.05s1.83,.34,2.47,1.03c.64,.69,.96,1.65,.96,2.9,0,.08,0,.19,0,.34h-5.63c.05,.83,.28,1.46,.7,1.91,.42,.44,.95,.66,1.58,.66,.47,0,.87-.12,1.2-.37,.33-.25,.59-.64,.79-1.18Zm-4.2-2.07h4.21c-.06-.64-.22-1.11-.48-1.43-.41-.49-.94-.74-1.59-.74-.59,0-1.08,.2-1.48,.59s-.62,.92-.66,1.58Z" fill="#030404"/><path d="M155.31,503.83v-7.55h1.15v1.14c.29-.54,.57-.89,.81-1.06,.25-.17,.52-.26,.82-.26,.43,0,.87,.14,1.31,.41l-.44,1.19c-.31-.18-.63-.28-.94-.28-.28,0-.53,.08-.75,.25-.22,.17-.38,.4-.48,.7-.14,.45-.21,.95-.21,1.49v3.95h-1.28Z" fill="#030404"/><path d="M165.09,502.9c-.47,.4-.93,.69-1.37,.85s-.91,.25-1.41,.25c-.83,0-1.47-.2-1.91-.61-.45-.41-.67-.92-.67-1.55,0-.37,.08-.71,.25-1.01,.17-.31,.39-.55,.66-.74,.27-.18,.58-.32,.92-.42,.25-.07,.63-.13,1.14-.19,1.03-.12,1.79-.27,2.28-.44,0-.17,0-.29,0-.33,0-.52-.12-.89-.36-1.1-.33-.29-.81-.43-1.46-.43-.6,0-1.05,.11-1.33,.32s-.5,.58-.64,1.12l-1.25-.17c.11-.54,.3-.97,.56-1.3,.26-.33,.64-.58,1.13-.76s1.06-.27,1.71-.27,1.17,.08,1.57,.23c.4,.15,.7,.34,.89,.57,.19,.23,.32,.52,.4,.87,.04,.22,.06,.61,.06,1.18v1.71c0,1.19,.03,1.94,.08,2.26,.05,.32,.16,.62,.32,.91h-1.34c-.13-.27-.22-.58-.26-.93Zm-.11-2.86c-.46,.19-1.16,.35-2.09,.48-.53,.08-.9,.16-1.12,.26-.22,.1-.39,.23-.5,.42-.12,.18-.18,.39-.18,.61,0,.34,.13,.62,.39,.85,.26,.23,.64,.34,1.13,.34s.93-.11,1.32-.32c.38-.22,.67-.51,.85-.88,.14-.29,.21-.72,.21-1.28v-.47Z" fill="#030404"/><path d="M171.06,502.68l.19,1.13c-.36,.08-.68,.11-.97,.11-.46,0-.82-.07-1.08-.22-.26-.15-.44-.34-.54-.58-.1-.24-.16-.74-.16-1.51v-4.34h-.94v-1h.94v-1.87l1.27-.77v2.64h1.29v1h-1.29v4.41c0,.37,.02,.6,.07,.7,.04,.1,.12,.19,.22,.25,.1,.06,.25,.09,.44,.09,.14,0,.33-.02,.56-.05Z" fill="#030404"/><path d="M171.83,500.05c0-1.4,.39-2.43,1.17-3.11,.65-.56,1.44-.84,2.37-.84,1.04,0,1.89,.34,2.54,1.02s.99,1.62,.99,2.82c0,.97-.15,1.74-.44,2.29s-.72,.99-1.27,1.3c-.56,.31-1.16,.46-1.82,.46-1.06,0-1.91-.34-2.56-1.02-.65-.68-.98-1.65-.98-2.93Zm1.31,0c0,.97,.21,1.69,.63,2.17,.42,.48,.95,.72,1.59,.72s1.16-.24,1.59-.72c.42-.48,.63-1.22,.63-2.21,0-.93-.21-1.64-.64-2.12-.42-.48-.95-.72-1.58-.72s-1.17,.24-1.59,.72c-.42,.48-.63,1.2-.63,2.17Z" fill="#030404"/><path d="M180.39,503.83v-7.55h1.15v1.14c.29-.54,.57-.89,.81-1.06,.25-.17,.52-.26,.82-.26,.43,0,.87,.14,1.31,.41l-.44,1.19c-.31-.18-.63-.28-.94-.28-.28,0-.53,.08-.75,.25-.22,.17-.38,.4-.48,.7-.14,.45-.21,.95-.21,1.49v3.95h-1.28Z" fill="#030404"/><path d="M184.74,501.58l1.27-.2c.07,.51,.27,.9,.59,1.17,.32,.27,.78,.4,1.36,.4s1.02-.12,1.31-.36,.43-.52,.43-.84c0-.29-.13-.52-.38-.68-.18-.11-.61-.26-1.31-.43-.94-.24-1.59-.44-1.95-.62-.36-.17-.64-.41-.82-.72-.19-.31-.28-.64-.28-1.01,0-.34,.08-.65,.23-.93,.15-.29,.36-.53,.63-.71,.2-.15,.47-.27,.81-.37s.71-.15,1.11-.15c.59,0,1.11,.09,1.56,.26,.45,.17,.78,.4,.99,.69,.21,.29,.36,.68,.44,1.17l-1.25,.17c-.06-.39-.22-.69-.49-.91-.27-.22-.66-.33-1.15-.33-.59,0-1.01,.1-1.26,.29-.25,.19-.38,.42-.38,.68,0,.17,.05,.32,.16,.45,.1,.14,.27,.25,.49,.34,.13,.05,.5,.16,1.13,.33,.91,.24,1.54,.44,1.89,.59,.36,.15,.64,.38,.84,.67,.2,.29,.31,.66,.31,1.09s-.12,.83-.37,1.21c-.25,.38-.61,.67-1.08,.87s-1,.31-1.59,.31c-.98,0-1.73-.2-2.24-.61-.51-.41-.84-1.01-.98-1.81Z" fill="#030404"/></g><rect x="274.05" y="12.7" width="685.49" height="313.34" fill="#c1cd23"/><rect x="38.01" y="11.55" width="225.58" height="210.55" fill="#e8ecec"/><text transform="translate(116.56 33.89)" fill="#030404" font-family="Arial-BoldMT, Arial" font-size="17.47"><tspan x="0" y="0">Memory</tspan></text><text transform="translate(571.59 44.08)" fill="#030404" font-family="Arial-BoldMT, Arial" font-size="17.47"><tspan x="0" y="0">Processors</tspan></text><text transform="translate(981.07 34.83)" fill="#030404" font-family="Arial-BoldMT, Arial" font-size="17.47"><tspan x="0" y="0">Network Acceleration</tspan></text><rect x="46.23" y="147.28" width="206.51" height="29.6" fill="#ffe0a8"/><rect x="46.41" y="44.14" width="206.67" height="28.79" fill="#ffe0a8"/><rect x="61.55" y="516.58" width="177.67" height="44.03" fill="#ecb7c5"/><g><path d="M82.94,532.71l1.3-.11c.06,.52,.21,.95,.43,1.28s.57,.6,1.05,.81,1.01,.31,1.6,.31c.53,0,.99-.08,1.39-.23,.4-.16,.7-.37,.9-.64s.29-.57,.29-.89-.09-.61-.28-.86-.5-.45-.94-.62c-.28-.11-.9-.28-1.85-.51s-1.63-.45-2.01-.65c-.5-.26-.87-.58-1.11-.97-.24-.39-.37-.82-.37-1.3,0-.53,.15-1.02,.45-1.47,.3-.46,.73-.8,1.31-1.04,.57-.24,1.21-.36,1.91-.36,.77,0,1.45,.12,2.04,.37s1.04,.61,1.36,1.1,.49,1.03,.51,1.64l-1.32,.1c-.07-.66-.31-1.16-.72-1.49-.41-.34-1.02-.5-1.82-.5s-1.44,.15-1.82,.46c-.38,.31-.57,.67-.57,1.11,0,.37,.13,.68,.4,.92,.27,.24,.96,.49,2.08,.74,1.12,.25,1.89,.48,2.31,.67,.61,.28,1.05,.63,1.34,1.06s.43,.92,.43,1.48-.16,1.08-.48,1.57c-.32,.49-.77,.87-1.37,1.14s-1.26,.41-2.01,.41c-.94,0-1.73-.14-2.37-.41-.64-.28-1.14-.69-1.5-1.24-.36-.55-.55-1.18-.57-1.87Z" fill="#030404"/><path d="M92.9,538.97l-.14-1.2c.28,.08,.52,.11,.73,.11,.28,0,.51-.05,.68-.14,.17-.09,.31-.23,.42-.4,.08-.13,.21-.45,.39-.95,.02-.07,.06-.18,.11-.31l-2.86-7.56h1.38l1.57,4.37c.2,.55,.39,1.14,.55,1.75,.15-.59,.32-1.16,.53-1.72l1.61-4.4h1.28l-2.87,7.68c-.31,.83-.55,1.4-.72,1.71-.23,.42-.49,.73-.78,.93-.29,.2-.64,.29-1.05,.29-.25,0-.52-.05-.82-.16Z" fill="#030404"/><path d="M100.24,536.06v-7.55h1.14v1.06c.24-.37,.55-.67,.95-.89,.39-.22,.84-.34,1.34-.34,.56,0,1.02,.12,1.38,.35s.61,.56,.76,.97c.6-.88,1.37-1.32,2.33-1.32,.75,0,1.32,.21,1.73,.62,.4,.42,.6,1.05,.6,1.92v5.18h-1.27v-4.75c0-.51-.04-.88-.12-1.11-.08-.23-.23-.41-.45-.54s-.47-.21-.77-.21c-.53,0-.97,.18-1.32,.53-.35,.35-.53,.92-.53,1.7v4.39h-1.28v-4.9c0-.57-.1-1-.31-1.28-.21-.29-.55-.43-1.02-.43-.36,0-.69,.09-1,.28s-.53,.47-.66,.83c-.14,.36-.21,.89-.21,1.58v3.92h-1.28Z" fill="#030404"/><path d="M112.36,536.06v-7.55h1.14v1.06c.24-.37,.55-.67,.95-.89,.39-.22,.84-.34,1.34-.34,.56,0,1.02,.12,1.38,.35s.61,.56,.76,.97c.6-.88,1.37-1.32,2.33-1.32,.75,0,1.32,.21,1.73,.62,.4,.42,.6,1.05,.6,1.92v5.18h-1.27v-4.75c0-.51-.04-.88-.12-1.11-.08-.23-.23-.41-.45-.54s-.47-.21-.77-.21c-.53,0-.97,.18-1.32,.53-.35,.35-.53,.92-.53,1.7v4.39h-1.28v-4.9c0-.57-.1-1-.31-1.28-.21-.29-.55-.43-1.02-.43-.36,0-.69,.09-1,.28s-.53,.47-.66,.83c-.14,.36-.21,.89-.21,1.58v3.92h-1.28Z" fill="#030404"/><path d="M129.66,533.63l1.32,.16c-.21,.77-.59,1.37-1.16,1.8-.56,.43-1.28,.64-2.16,.64-1.1,0-1.98-.34-2.63-1.02-.65-.68-.97-1.63-.97-2.86s.33-2.26,.98-2.96c.65-.7,1.5-1.05,2.54-1.05s1.83,.34,2.47,1.03c.64,.69,.96,1.65,.96,2.9,0,.08,0,.19,0,.34h-5.63c.05,.83,.28,1.46,.7,1.91,.42,.44,.95,.66,1.58,.66,.47,0,.87-.12,1.2-.37,.33-.25,.59-.64,.79-1.18Zm-4.2-2.07h4.21c-.06-.64-.22-1.11-.48-1.43-.41-.49-.94-.74-1.59-.74-.59,0-1.08,.2-1.48,.59s-.62,.92-.66,1.58Z" fill="#030404"/><path d="M135.38,534.92l.19,1.13c-.36,.08-.68,.11-.97,.11-.46,0-.82-.07-1.08-.22-.26-.15-.44-.34-.54-.58-.1-.24-.16-.74-.16-1.51v-4.34h-.94v-1h.94v-1.87l1.27-.77v2.64h1.29v1h-1.29v4.41c0,.37,.02,.6,.07,.7,.04,.1,.12,.19,.22,.25,.1,.06,.25,.09,.44,.09,.14,0,.33-.02,.56-.05Z" fill="#030404"/><path d="M136.61,536.06v-7.55h1.15v1.14c.29-.54,.57-.89,.81-1.06,.25-.17,.52-.26,.82-.26,.43,0,.87,.14,1.31,.41l-.44,1.19c-.31-.18-.63-.28-.94-.28-.28,0-.53,.08-.75,.25-.22,.17-.38,.4-.48,.7-.14,.45-.21,.95-.21,1.49v3.95h-1.28Z" fill="#030404"/><path d="M141.48,527.11v-1.47h1.28v1.47h-1.28Zm0,8.95v-7.55h1.28v7.55h-1.28Z" fill="#030404"/><path d="M149.64,533.3l1.26,.16c-.14,.87-.49,1.55-1.06,2.04-.57,.49-1.26,.74-2.09,.74-1.03,0-1.86-.34-2.49-1.01-.63-.67-.94-1.64-.94-2.9,0-.81,.13-1.53,.4-2.14,.27-.61,.68-1.07,1.23-1.38,.55-.31,1.15-.46,1.8-.46,.82,0,1.49,.21,2.01,.62,.52,.42,.86,1,1,1.77l-1.24,.19c-.12-.51-.33-.89-.63-1.14-.3-.26-.66-.38-1.09-.38-.64,0-1.17,.23-1.57,.69s-.6,1.19-.6,2.19,.19,1.75,.58,2.21c.39,.46,.9,.69,1.52,.69,.5,0,.92-.15,1.26-.46,.34-.31,.55-.78,.64-1.42Z" fill="#030404"/><path d="M156.24,536.06v-10.42h1.38v4.28h5.42v-4.28h1.38v10.42h-1.38v-4.91h-5.42v4.91h-1.38Z" fill="#030404"/><path d="M171.47,535.13c-.47,.4-.93,.69-1.37,.85s-.91,.25-1.41,.25c-.83,0-1.47-.2-1.91-.61-.45-.41-.67-.92-.67-1.55,0-.37,.08-.71,.25-1.01,.17-.31,.39-.55,.66-.74,.27-.18,.58-.32,.92-.42,.25-.07,.63-.13,1.14-.19,1.03-.12,1.79-.27,2.28-.44,0-.17,0-.29,0-.33,0-.52-.12-.89-.36-1.1-.33-.29-.81-.43-1.46-.43-.6,0-1.05,.11-1.33,.32s-.5,.58-.64,1.12l-1.25-.17c.11-.54,.3-.97,.56-1.3,.26-.33,.64-.58,1.13-.76s1.06-.27,1.71-.27,1.17,.08,1.57,.23c.4,.15,.7,.34,.89,.57,.19,.23,.32,.52,.4,.87,.04,.22,.06,.61,.06,1.18v1.71c0,1.19,.03,1.94,.08,2.26,.05,.32,.16,.62,.32,.91h-1.34c-.13-.27-.22-.58-.26-.93Zm-.11-2.86c-.46,.19-1.16,.35-2.09,.48-.53,.08-.9,.16-1.12,.26-.22,.1-.39,.23-.5,.42-.12,.18-.18,.39-.18,.61,0,.34,.13,.62,.39,.85,.26,.23,.64,.34,1.13,.34s.93-.11,1.32-.32c.38-.22,.67-.51,.85-.88,.14-.29,.21-.72,.21-1.28v-.47Z" fill="#030404"/><path d="M174.63,536.06v-7.55h1.15v1.14c.29-.54,.57-.89,.81-1.06,.25-.17,.52-.26,.82-.26,.43,0,.87,.14,1.31,.41l-.44,1.19c-.31-.18-.63-.28-.94-.28-.28,0-.53,.08-.75,.25-.22,.17-.38,.4-.48,.7-.14,.45-.21,.95-.21,1.49v3.95h-1.28Z" fill="#030404"/><path d="M184.39,536.06v-.95c-.48,.75-1.18,1.12-2.11,1.12-.6,0-1.16-.17-1.66-.5-.5-.33-.9-.79-1.17-1.39-.28-.59-.42-1.28-.42-2.05s.13-1.44,.38-2.05c.25-.61,.63-1.08,1.13-1.41,.5-.33,1.06-.49,1.68-.49,.46,0,.86,.1,1.22,.29,.36,.19,.64,.44,.87,.75v-3.74h1.27v10.42h-1.19Zm-4.04-3.77c0,.97,.2,1.69,.61,2.17s.89,.72,1.44,.72,1.03-.23,1.43-.69c.39-.46,.59-1.16,.59-2.09,0-1.03-.2-1.79-.6-2.28s-.89-.72-1.47-.72-1.04,.23-1.43,.7c-.38,.46-.57,1.2-.57,2.2Z" fill="#030404"/><path d="M188.98,536.06l-2.31-7.55h1.32l1.2,4.36,.45,1.62c.02-.08,.15-.6,.39-1.56l1.2-4.42h1.31l1.13,4.38,.38,1.44,.43-1.46,1.29-4.36h1.24l-2.36,7.55h-1.33l-1.2-4.52-.29-1.29-1.53,5.81h-1.34Z" fill="#030404"/><path d="M203.02,535.13c-.47,.4-.93,.69-1.37,.85s-.91,.25-1.41,.25c-.83,0-1.47-.2-1.91-.61-.45-.41-.67-.92-.67-1.55,0-.37,.08-.71,.25-1.01,.17-.31,.39-.55,.66-.74,.27-.18,.58-.32,.92-.42,.25-.07,.63-.13,1.14-.19,1.03-.12,1.79-.27,2.28-.44,0-.17,0-.29,0-.33,0-.52-.12-.89-.36-1.1-.33-.29-.81-.43-1.46-.43-.6,0-1.05,.11-1.33,.32s-.5,.58-.64,1.12l-1.25-.17c.11-.54,.3-.97,.56-1.3,.26-.33,.64-.58,1.13-.76s1.06-.27,1.71-.27,1.17,.08,1.57,.23c.4,.15,.7,.34,.89,.57,.19,.23,.32,.52,.4,.87,.04,.22,.06,.61,.06,1.18v1.71c0,1.19,.03,1.94,.08,2.26,.05,.32,.16,.62,.32,.91h-1.34c-.13-.27-.22-.58-.26-.93Zm-.11-2.86c-.46,.19-1.16,.35-2.09,.48-.53,.08-.9,.16-1.12,.26-.22,.1-.39,.23-.5,.42-.12,.18-.18,.39-.18,.61,0,.34,.13,.62,.39,.85,.26,.23,.64,.34,1.13,.34s.93-.11,1.32-.32c.38-.22,.67-.51,.85-.88,.14-.29,.21-.72,.21-1.28v-.47Z" fill="#030404"/><path d="M206.18,536.06v-7.55h1.15v1.14c.29-.54,.57-.89,.81-1.06,.25-.17,.52-.26,.82-.26,.43,0,.87,.14,1.31,.41l-.44,1.19c-.31-.18-.63-.28-.94-.28-.28,0-.53,.08-.75,.25-.22,.17-.38,.4-.48,.7-.14,.45-.21,.95-.21,1.49v3.95h-1.28Z" fill="#030404"/><path d="M216.21,533.63l1.32,.16c-.21,.77-.59,1.37-1.16,1.8-.56,.43-1.28,.64-2.16,.64-1.1,0-1.98-.34-2.63-1.02-.65-.68-.97-1.63-.97-2.86s.33-2.26,.98-2.96c.65-.7,1.5-1.05,2.54-1.05s1.83,.34,2.47,1.03c.64,.69,.96,1.65,.96,2.9,0,.08,0,.19,0,.34h-5.63c.05,.83,.28,1.46,.7,1.91,.42,.44,.95,.66,1.58,.66,.47,0,.87-.12,1.2-.37,.33-.25,.59-.64,.79-1.18Zm-4.2-2.07h4.21c-.06-.64-.22-1.11-.48-1.43-.41-.49-.94-.74-1.59-.74-.59,0-1.08,.2-1.48,.59s-.62,.92-.66,1.58Z" fill="#030404"/><path d="M109.76,553.53l4-10.42h1.49l4.27,10.42h-1.57l-1.22-3.16h-4.36l-1.14,3.16h-1.46Zm3.01-4.28h3.53l-1.09-2.89c-.33-.88-.58-1.6-.74-2.16-.13,.67-.32,1.33-.56,1.99l-1.14,3.06Z" fill="#030404"/><path d="M125.38,550.77l1.26,.16c-.14,.87-.49,1.55-1.06,2.04-.57,.49-1.26,.74-2.09,.74-1.03,0-1.86-.34-2.49-1.01-.63-.67-.94-1.64-.94-2.9,0-.81,.13-1.53,.4-2.14,.27-.61,.68-1.07,1.23-1.38,.55-.31,1.15-.46,1.8-.46,.82,0,1.49,.21,2.01,.62,.52,.42,.86,1,1,1.77l-1.24,.19c-.12-.51-.33-.89-.63-1.14-.3-.26-.66-.38-1.09-.38-.64,0-1.17,.23-1.57,.69s-.6,1.19-.6,2.19,.19,1.75,.58,2.21c.39,.46,.9,.69,1.52,.69,.5,0,.92-.15,1.26-.46,.34-.31,.55-.78,.64-1.42Z" fill="#030404"/><path d="M132.66,550.77l1.26,.16c-.14,.87-.49,1.55-1.06,2.04-.57,.49-1.26,.74-2.09,.74-1.03,0-1.86-.34-2.49-1.01-.63-.67-.94-1.64-.94-2.9,0-.81,.13-1.53,.4-2.14,.27-.61,.68-1.07,1.23-1.38,.55-.31,1.15-.46,1.8-.46,.82,0,1.49,.21,2.01,.62,.52,.42,.86,1,1,1.77l-1.24,.19c-.12-.51-.33-.89-.63-1.14-.3-.26-.66-.38-1.09-.38-.64,0-1.17,.23-1.57,.69s-.6,1.19-.6,2.19,.19,1.75,.58,2.21c.39,.46,.9,.69,1.52,.69,.5,0,.92-.15,1.26-.46,.34-.31,.55-.78,.64-1.42Z" fill="#030404"/><path d="M140.18,551.1l1.32,.16c-.21,.77-.59,1.37-1.16,1.8-.56,.43-1.28,.64-2.16,.64-1.1,0-1.98-.34-2.63-1.02-.65-.68-.97-1.63-.97-2.86s.33-2.26,.98-2.96c.65-.7,1.5-1.05,2.54-1.05s1.83,.34,2.47,1.03c.64,.69,.96,1.65,.96,2.9,0,.08,0,.19,0,.34h-5.63c.05,.83,.28,1.46,.7,1.91,.42,.44,.95,.66,1.58,.66,.47,0,.87-.12,1.2-.37,.33-.25,.59-.64,.79-1.18Zm-4.2-2.07h4.21c-.06-.64-.22-1.11-.48-1.43-.41-.49-.94-.74-1.59-.74-.59,0-1.08,.2-1.48,.59s-.62,.92-.66,1.58Z" fill="#030404"/><path d="M143.08,553.53v-10.42h1.28v10.42h-1.28Z" fill="#030404"/><path d="M151.51,551.1l1.32,.16c-.21,.77-.59,1.37-1.16,1.8-.56,.43-1.28,.64-2.16,.64-1.1,0-1.98-.34-2.63-1.02-.65-.68-.97-1.63-.97-2.86s.33-2.26,.98-2.96c.65-.7,1.5-1.05,2.54-1.05s1.83,.34,2.47,1.03c.64,.69,.96,1.65,.96,2.9,0,.08,0,.19,0,.34h-5.63c.05,.83,.28,1.46,.7,1.91,.42,.44,.95,.66,1.58,.66,.47,0,.87-.12,1.2-.37,.33-.25,.59-.64,.79-1.18Zm-4.2-2.07h4.21c-.06-.64-.22-1.11-.48-1.43-.41-.49-.94-.74-1.59-.74-.59,0-1.08,.2-1.48,.59s-.62,.92-.66,1.58Z" fill="#030404"/><path d="M154.42,553.53v-7.55h1.15v1.14c.29-.54,.57-.89,.81-1.06,.25-.17,.52-.26,.82-.26,.43,0,.87,.14,1.31,.41l-.44,1.19c-.31-.18-.63-.28-.94-.28-.28,0-.53,.08-.75,.25-.22,.17-.38,.4-.48,.7-.14,.45-.21,.95-.21,1.49v3.95h-1.28Z" fill="#030404"/><path d="M164.21,552.6c-.47,.4-.93,.69-1.37,.85s-.91,.25-1.41,.25c-.83,0-1.47-.2-1.91-.61-.45-.41-.67-.92-.67-1.55,0-.37,.08-.71,.25-1.01,.17-.31,.39-.55,.66-.74,.27-.18,.58-.32,.92-.42,.25-.07,.63-.13,1.14-.19,1.03-.12,1.79-.27,2.28-.44,0-.17,0-.29,0-.33,0-.52-.12-.89-.36-1.1-.33-.29-.81-.43-1.46-.43-.6,0-1.05,.11-1.33,.32s-.5,.58-.64,1.12l-1.25-.17c.11-.54,.3-.97,.56-1.3,.26-.33,.64-.58,1.13-.76s1.06-.27,1.71-.27,1.17,.08,1.57,.23c.4,.15,.7,.34,.89,.57,.19,.23,.32,.52,.4,.87,.04,.22,.06,.61,.06,1.18v1.71c0,1.19,.03,1.94,.08,2.26,.05,.32,.16,.62,.32,.91h-1.34c-.13-.27-.22-.58-.26-.93Zm-.11-2.86c-.46,.19-1.16,.35-2.09,.48-.53,.08-.9,.16-1.12,.26-.22,.1-.39,.23-.5,.42-.12,.18-.18,.39-.18,.61,0,.34,.13,.62,.39,.85,.26,.23,.64,.34,1.13,.34s.93-.11,1.32-.32c.38-.22,.67-.51,.85-.88,.14-.29,.21-.72,.21-1.28v-.47Z" fill="#030404"/><path d="M170.17,552.39l.19,1.13c-.36,.08-.68,.11-.97,.11-.46,0-.82-.07-1.08-.22-.26-.15-.44-.34-.54-.58-.1-.24-.16-.74-.16-1.51v-4.34h-.94v-1h.94v-1.87l1.27-.77v2.64h1.29v1h-1.29v4.41c0,.37,.02,.6,.07,.7,.04,.1,.12,.19,.22,.25,.1,.06,.25,.09,.44,.09,.14,0,.33-.02,.56-.05Z" fill="#030404"/><path d="M170.95,549.76c0-1.4,.39-2.43,1.17-3.11,.65-.56,1.44-.84,2.37-.84,1.04,0,1.89,.34,2.54,1.02s.99,1.62,.99,2.82c0,.97-.15,1.74-.44,2.29s-.72,.99-1.27,1.3c-.56,.31-1.16,.46-1.82,.46-1.06,0-1.91-.34-2.56-1.02-.65-.68-.98-1.65-.98-2.93Zm1.31,0c0,.97,.21,1.69,.63,2.17,.42,.48,.95,.72,1.59,.72s1.16-.24,1.59-.72c.42-.48,.63-1.22,.63-2.21,0-.93-.21-1.64-.64-2.12-.42-.48-.95-.72-1.58-.72s-1.17,.24-1.59,.72c-.42,.48-.63,1.2-.63,2.17Z" fill="#030404"/><path d="M179.5,553.53v-7.55h1.15v1.14c.29-.54,.57-.89,.81-1.06,.25-.17,.52-.26,.82-.26,.43,0,.87,.14,1.31,.41l-.44,1.19c-.31-.18-.63-.28-.94-.28-.28,0-.53,.08-.75,.25-.22,.17-.38,.4-.48,.7-.14,.45-.21,.95-.21,1.49v3.95h-1.28Z" fill="#030404"/><path d="M183.85,551.28l1.27-.2c.07,.51,.27,.9,.59,1.17,.32,.27,.78,.4,1.36,.4s1.02-.12,1.31-.36,.43-.52,.43-.84c0-.29-.13-.52-.38-.68-.18-.11-.61-.26-1.31-.43-.94-.24-1.59-.44-1.95-.62-.36-.17-.64-.41-.82-.72-.19-.31-.28-.64-.28-1.01,0-.34,.08-.65,.23-.93,.15-.29,.36-.53,.63-.71,.2-.15,.47-.27,.81-.37s.71-.15,1.11-.15c.59,0,1.11,.09,1.56,.26,.45,.17,.78,.4,.99,.69,.21,.29,.36,.68,.44,1.17l-1.25,.17c-.06-.39-.22-.69-.49-.91-.27-.22-.66-.33-1.15-.33-.59,0-1.01,.1-1.26,.29-.25,.19-.38,.42-.38,.68,0,.17,.05,.32,.16,.45,.1,.14,.27,.25,.49,.34,.13,.05,.5,.16,1.13,.33,.91,.24,1.54,.44,1.89,.59,.36,.15,.64,.38,.84,.67,.2,.29,.31,.66,.31,1.09s-.12,.83-.37,1.21c-.25,.38-.61,.67-1.08,.87s-1,.31-1.59,.31c-.98,0-1.73-.2-2.24-.61-.51-.41-.84-1.01-.98-1.81Z" fill="#030404"/></g><rect x="62.01" y="566.3" width="177.2" height="27.71" fill="#ecb7c5"/><text transform="translate(99.37 584.42)" fill="#030404" font-family="ArialMT, Arial" font-size="14.56"><tspan x="0" y="0">Secure Memory</tspan></text><rect x="62.6" y="599.4" width="176.61" height="43.05" fill="#ecb7c5"/><text transform="translate(96.13 617.81)" fill="#030404" font-family="ArialMT, Arial" font-size="14.56"><tspan x="0" y="0">Random Number</tspan><tspan x="19.01" y="17.47">Generators</tspan></text><text transform="translate(333.12 313.5)" fill="#030404" font-family="ArialMT, Arial" font-size="17.47"><tspan x="0" y="0">3x Dual-core Lockstep</tspan></text><text transform="translate(667.37 313.5)" fill="#030404" font-family="ArialMT, Arial" font-size="17.47"><tspan x="0" y="0">Cluster Lockstep Option</tspan></text><text transform="translate(487.56 307.68)" font-family="ArialMT, Arial" font-size="17.06"><tspan x="0" y="0"> </tspan></text><text transform="translate(76.43 167.72)" fill="#030404" font-family="ArialMT, Arial" font-size="14.56"><tspan x="0" y="0">NOR Flash Memory I/F</tspan></text><rect x="46.23" y="182.19" width="206.51" height="29.6" fill="#ffe0a8"/><text transform="translate(68.34 202.64)" fill="#030404" font-family="ArialMT, Arial" font-size="14.56"><tspan x="0" y="0">NAND Flash Memory I/Fs</tspan></text><text transform="translate(101.49 64.71)" fill="#030404" font-family="ArialMT, Arial" font-size="14.56"><tspan x="0" y="0">System SRAM </tspan></text><rect x="286.1" y="63.89" width="276.86" height="220.37" fill="#dce194"/><rect x="574.6" y="63.89" width="183.04" height="220.37" fill="#dce194"/><rect x="46.23" y="78.88" width="206.38" height="28.79" fill="#ffe0a8"/><text transform="translate(100.14 97.99)" fill="#030404" font-family="ArialMT, Arial" font-size="14.56"><tspan x="0" y="0">Standby SRAM</tspan></text><rect x="46.23" y="112.61" width="206.51" height="28.79" fill="#ffe0a8"/><text transform="translate(81.91 131.89)" fill="#030404" font-family="ArialMT, Arial" font-size="14.56"><tspan x="0" y="0">DDR3L / LPDDR4 I/F</tspan></text><rect x="37.55" y="228.16" width="225.58" height="170.87" fill="#e8ecec"/><text transform="translate(118.32 250.35)" fill="#030404" font-family="Arial-BoldMT, Arial" font-size="17.47"><tspan x="0" y="0">System</tspan></text><rect x="46.23" y="259.18" width="207.05" height="27.4" fill="#fdb924"/><text transform="translate(68.77 277.77)" fill="#030404" font-family="ArialMT, Arial" font-size="14.56"><tspan x="0" y="0">FCCU and MBIST/LBIST</tspan></text><rect x="46.23" y="292.9" width="207.05" height="27.4" fill="#fdb924"/><rect x="46.23" y="327.18" width="207.05" height="27.4" fill="#fdb924"/><rect x="46.23" y="361.86" width="207.05" height="27.4" fill="#fdb924"/><text transform="translate(133.74 312.37)" fill="#030404" font-family="ArialMT, Arial" font-size="14.56"><tspan x="0" y="0">PLLs</tspan></text><text transform="translate(105 345.73)" fill="#030404" font-family="ArialMT, Arial" font-size="14.56"><tspan x="0" y="0">2 x Safe DMA</tspan></text><text transform="translate(78.84 379.59)" fill="#030404" font-family="ArialMT, Arial" font-size="14.56"><tspan x="0" y="0">Debug and Trace Unit</tspan></text><text transform="translate(994.54 64.17)" fill="#030404" font-family="Arial-BoldMT, Arial" font-size="14.56"><tspan x="0" y="0">Automotive Networks</tspan></text><rect x="988.86" y="74.71" width="161.71" height="262.91" fill="#c7c4e2"/><rect x="988.86" y="383.36" width="161.71" height="262.91" fill="#c7c4e2"/><rect x="996.48" y="173.76" width="148" height="35.18" fill="#d3d1e9"/><rect x="996.48" y="214.2" width="71.1" height="35.18" fill="#d3d1e9"/><rect x="996.48" y="253.71" width="148.16" height="35.18" fill="#d3d1e9"/><rect x="996.48" y="293.61" width="148" height="35.18" fill="#d3d1e9"/><g><path d="M1035.77,92.88v-8.27h1.68v6.86h4.19v1.4h-5.87Z"/><path d="M1042.46,89.78c0-.53,.13-1.04,.39-1.54,.26-.5,.63-.88,1.11-1.14,.48-.26,1.02-.39,1.61-.39,.91,0,1.66,.3,2.25,.89,.58,.59,.88,1.34,.88,2.25s-.29,1.67-.88,2.27c-.59,.6-1.33,.9-2.23,.9-.55,0-1.08-.12-1.58-.38-.5-.25-.88-.62-1.15-1.1-.26-.48-.39-1.07-.39-1.77Zm1.64,.09c0,.6,.14,1.06,.43,1.38,.28,.32,.64,.48,1.05,.48s.77-.16,1.05-.48c.28-.32,.42-.78,.42-1.39s-.14-1.05-.42-1.36c-.28-.32-.63-.48-1.05-.48s-.77,.16-1.05,.48c-.28,.32-.43,.78-.43,1.38Z"/><path d="M1051.06,92.88l-1.91-6.04h1.55l1.13,3.96,1.04-3.96h1.54l1.01,3.96,1.15-3.96h1.58l-1.94,6.04h-1.54l-1.04-3.88-1.02,3.88h-1.55Z"/><path d="M1062.29,92.88v-8.27h1.68v6.86h4.19v1.4h-5.87Z"/><path d="M1070.54,88.69l-1.45-.26c.16-.58,.44-1.02,.84-1.3,.4-.28,.99-.42,1.77-.42,.71,0,1.24,.08,1.59,.25,.35,.17,.59,.38,.74,.64s.21,.74,.21,1.43l-.02,1.87c0,.53,.03,.92,.08,1.17,.05,.25,.15,.52,.29,.81h-1.58c-.04-.11-.09-.26-.15-.47-.03-.09-.05-.16-.06-.19-.27,.27-.56,.46-.88,.6s-.64,.2-1,.2c-.62,0-1.11-.17-1.47-.51-.36-.34-.54-.76-.54-1.28,0-.34,.08-.65,.24-.91,.16-.27,.39-.47,.69-.61s.72-.27,1.27-.37c.75-.14,1.26-.27,1.55-.39v-.16c0-.31-.08-.53-.23-.66-.15-.13-.44-.2-.86-.2-.28,0-.51,.06-.67,.17-.16,.11-.29,.31-.39,.59Zm2.14,1.3c-.2,.07-.53,.15-.97,.24-.44,.1-.73,.19-.87,.28-.21,.15-.31,.34-.31,.56s.08,.42,.25,.58,.38,.24,.64,.24c.29,0,.56-.09,.82-.28,.19-.14,.32-.32,.38-.53,.04-.14,.06-.4,.06-.78v-.32Z"/><path d="M1078.59,86.85v1.27h-1.09v2.43c0,.49,.01,.78,.03,.86,.02,.08,.07,.15,.14,.2,.07,.05,.16,.08,.27,.08,.15,0,.36-.05,.64-.15l.14,1.24c-.37,.16-.79,.24-1.26,.24-.29,0-.55-.05-.78-.14-.23-.1-.4-.22-.51-.38-.11-.15-.18-.36-.22-.62-.03-.19-.05-.56-.05-1.13v-2.63h-.73v-1.27h.73v-1.2l1.6-.93v2.13h1.09Z"/><path d="M1083.2,90.96l1.59,.27c-.2,.58-.53,1.03-.97,1.33-.44,.31-.99,.46-1.66,.46-1.05,0-1.83-.34-2.33-1.03-.4-.55-.6-1.24-.6-2.08,0-1,.26-1.78,.78-2.35s1.18-.85,1.98-.85c.9,0,1.61,.3,2.13,.89s.77,1.5,.75,2.73h-4c.01,.47,.14,.84,.39,1.11,.25,.26,.55,.4,.92,.4,.25,0,.46-.07,.63-.2,.17-.14,.3-.36,.39-.66Zm.09-1.62c-.01-.46-.13-.81-.36-1.05s-.5-.36-.83-.36c-.35,0-.64,.13-.86,.38s-.34,.6-.34,1.03h2.39Z"/><path d="M1091.67,92.88h-1.6v-3.08c0-.65-.03-1.07-.1-1.27-.07-.19-.18-.34-.33-.45-.15-.11-.34-.16-.55-.16-.28,0-.53,.08-.75,.23-.22,.15-.37,.35-.45,.6-.08,.25-.12,.71-.12,1.39v2.74h-1.6v-6.04h1.48v.89c.53-.68,1.19-1.02,1.99-1.02,.35,0,.67,.06,.97,.19s.51,.29,.66,.49c.15,.2,.25,.42,.31,.67,.06,.25,.09,.61,.09,1.07v3.75Z"/><path d="M1098.56,88.63l-1.58,.28c-.05-.31-.17-.55-.36-.71-.19-.16-.43-.24-.73-.24-.4,0-.72,.14-.95,.41s-.35,.73-.35,1.38c0,.72,.12,1.22,.36,1.52,.24,.3,.56,.44,.97,.44,.3,0,.55-.09,.74-.26s.33-.47,.41-.89l1.57,.27c-.16,.72-.48,1.26-.94,1.63s-1.08,.55-1.86,.55c-.88,0-1.59-.28-2.11-.84-.53-.56-.79-1.33-.79-2.31s.26-1.77,.79-2.33c.53-.56,1.24-.83,2.14-.83,.74,0,1.32,.16,1.75,.47s.75,.8,.94,1.45Z"/><path d="M1099.01,86.85h1.7l1.44,4.29,1.41-4.29h1.65l-2.13,5.81-.38,1.05c-.14,.35-.27,.62-.4,.81-.13,.19-.27,.34-.44,.45s-.37,.21-.61,.27-.51,.1-.82,.1-.61-.03-.9-.1l-.14-1.25c.25,.05,.48,.07,.68,.07,.37,0,.65-.11,.82-.33,.18-.22,.31-.5,.41-.83l-2.3-6.06Z"/><path d="M1008.06,104.38l1.63,.52c-.25,.91-.67,1.59-1.25,2.03-.58,.44-1.32,.66-2.21,.66-1.11,0-2.02-.38-2.73-1.13s-1.07-1.79-1.07-3.1c0-1.39,.36-2.46,1.07-3.23,.72-.77,1.66-1.15,2.83-1.15,1.02,0,1.85,.3,2.48,.9,.38,.36,.66,.87,.85,1.54l-1.67,.4c-.1-.43-.3-.77-.62-1.02-.31-.25-.69-.38-1.14-.38-.62,0-1.12,.22-1.5,.67s-.58,1.16-.58,2.16c0,1.05,.19,1.8,.57,2.25s.87,.67,1.48,.67c.45,0,.83-.14,1.15-.43,.32-.28,.55-.73,.69-1.34Z"/><path d="M1010.76,104.34c0-.53,.13-1.04,.39-1.54,.26-.5,.63-.88,1.11-1.14,.48-.26,1.02-.39,1.61-.39,.91,0,1.66,.3,2.25,.89,.58,.59,.88,1.34,.88,2.25s-.29,1.67-.88,2.27c-.59,.6-1.33,.9-2.23,.9-.55,0-1.08-.12-1.58-.38-.5-.25-.88-.62-1.15-1.1-.26-.48-.39-1.07-.39-1.77Zm1.64,.09c0,.6,.14,1.06,.43,1.38,.28,.32,.64,.48,1.05,.48s.77-.16,1.05-.48c.28-.32,.42-.78,.42-1.39s-.14-1.05-.42-1.36c-.28-.32-.63-.48-1.05-.48s-.77,.16-1.05,.48c-.28,.32-.43,.78-.43,1.38Z"/><path d="M1018.12,101.4h1.47v.82c.53-.64,1.15-.96,1.88-.96,.39,0,.72,.08,1.01,.24,.28,.16,.52,.4,.7,.72,.27-.32,.55-.56,.86-.72,.31-.16,.63-.24,.98-.24,.44,0,.82,.09,1.13,.27s.54,.44,.69,.79c.11,.26,.17,.68,.17,1.25v3.86h-1.6v-3.45c0-.6-.06-.99-.17-1.16-.15-.23-.38-.34-.68-.34-.22,0-.43,.07-.63,.2-.2,.14-.34,.34-.43,.6-.09,.26-.13,.68-.13,1.25v2.9h-1.6v-3.31c0-.59-.03-.97-.09-1.14-.06-.17-.15-.3-.26-.38-.12-.08-.28-.12-.49-.12-.25,0-.47,.07-.67,.2-.2,.13-.34,.32-.42,.57-.09,.25-.13,.67-.13,1.25v2.93h-1.6v-6.04Z"/><path d="M1028.48,101.4h1.47v.82c.53-.64,1.15-.96,1.88-.96,.39,0,.72,.08,1.01,.24,.28,.16,.52,.4,.7,.72,.27-.32,.55-.56,.86-.72,.31-.16,.63-.24,.98-.24,.44,0,.82,.09,1.13,.27s.54,.44,.69,.79c.11,.26,.17,.68,.17,1.25v3.86h-1.6v-3.45c0-.6-.06-.99-.17-1.16-.15-.23-.38-.34-.68-.34-.22,0-.43,.07-.63,.2-.2,.14-.34,.34-.43,.6-.09,.26-.13,.68-.13,1.25v2.9h-1.6v-3.31c0-.59-.03-.97-.09-1.14-.06-.17-.15-.3-.26-.38-.12-.08-.28-.12-.49-.12-.25,0-.47,.07-.67,.2-.2,.13-.34,.32-.42,.57-.09,.25-.13,.67-.13,1.25v2.93h-1.6v-6.04Z"/><path d="M1042.92,107.44v-.9c-.22,.32-.51,.58-.87,.76-.36,.19-.74,.28-1.13,.28s-.77-.09-1.09-.27-.56-.43-.7-.75c-.14-.32-.22-.77-.22-1.34v-3.82h1.6v2.77c0,.85,.03,1.37,.09,1.56s.17,.34,.32,.46,.35,.17,.59,.17c.27,0,.52-.07,.73-.22,.22-.15,.36-.34,.44-.56s.12-.76,.12-1.63v-2.55h1.6v6.04h-1.48Z"/><path d="M1051.56,107.44h-1.6v-3.08c0-.65-.03-1.07-.1-1.27-.07-.19-.18-.34-.33-.45-.15-.11-.34-.16-.55-.16-.28,0-.53,.08-.75,.23-.22,.15-.37,.35-.45,.6-.08,.25-.12,.71-.12,1.39v2.74h-1.6v-6.04h1.48v.89c.53-.68,1.19-1.02,1.99-1.02,.35,0,.67,.06,.97,.19s.51,.29,.66,.49c.15,.2,.25,.42,.31,.67,.06,.25,.09,.61,.09,1.07v3.75Z"/><path d="M1053.18,100.58v-1.48h1.6v1.48h-1.6Zm0,6.86v-6.04h1.6v6.04h-1.6Z"/><path d="M1061.68,103.19l-1.58,.28c-.05-.31-.17-.55-.36-.71-.19-.16-.43-.24-.73-.24-.4,0-.72,.14-.95,.41s-.35,.73-.35,1.38c0,.72,.12,1.22,.36,1.52,.24,.3,.56,.44,.97,.44,.3,0,.55-.09,.74-.26s.33-.47,.41-.89l1.57,.27c-.16,.72-.48,1.26-.94,1.63s-1.08,.55-1.86,.55c-.88,0-1.59-.28-2.11-.84-.53-.56-.79-1.33-.79-2.31s.26-1.77,.79-2.33c.53-.56,1.24-.83,2.14-.83,.74,0,1.32,.16,1.75,.47s.75,.8,.94,1.45Z"/><path d="M1064.08,103.25l-1.45-.26c.16-.58,.44-1.02,.84-1.3,.4-.28,.99-.42,1.77-.42,.71,0,1.24,.08,1.59,.25,.35,.17,.59,.38,.74,.64s.21,.74,.21,1.43l-.02,1.87c0,.53,.03,.92,.08,1.17,.05,.25,.15,.52,.29,.81h-1.58c-.04-.11-.09-.26-.15-.47-.03-.09-.05-.16-.06-.19-.27,.27-.56,.46-.88,.6s-.64,.2-1,.2c-.62,0-1.11-.17-1.47-.51-.36-.34-.54-.76-.54-1.28,0-.34,.08-.65,.24-.91,.16-.27,.39-.47,.69-.61s.72-.27,1.27-.37c.75-.14,1.26-.27,1.55-.39v-.16c0-.31-.08-.53-.23-.66-.15-.13-.44-.2-.86-.2-.28,0-.51,.06-.67,.17-.16,.11-.29,.31-.39,.59Zm2.14,1.3c-.2,.07-.53,.15-.97,.24-.44,.1-.73,.19-.87,.28-.21,.15-.31,.34-.31,.56s.08,.42,.25,.58,.38,.24,.64,.24c.29,0,.56-.09,.82-.28,.19-.14,.32-.32,.38-.53,.04-.14,.06-.4,.06-.78v-.32Z"/><path d="M1072.14,101.4v1.27h-1.09v2.43c0,.49,.01,.78,.03,.86,.02,.08,.07,.15,.14,.2,.07,.05,.16,.08,.27,.08,.15,0,.36-.05,.64-.15l.14,1.24c-.37,.16-.79,.24-1.26,.24-.29,0-.55-.05-.78-.14-.23-.1-.4-.22-.51-.38-.11-.15-.18-.36-.22-.62-.03-.19-.05-.56-.05-1.13v-2.63h-.73v-1.27h.73v-1.2l1.6-.93v2.13h1.09Z"/><path d="M1073.24,100.58v-1.48h1.6v1.48h-1.6Zm0,6.86v-6.04h1.6v6.04h-1.6Z"/><path d="M1076.11,104.34c0-.53,.13-1.04,.39-1.54,.26-.5,.63-.88,1.11-1.14,.48-.26,1.02-.39,1.61-.39,.91,0,1.66,.3,2.25,.89,.58,.59,.88,1.34,.88,2.25s-.29,1.67-.88,2.27c-.59,.6-1.33,.9-2.23,.9-.55,0-1.08-.12-1.58-.38-.5-.25-.88-.62-1.15-1.1-.26-.48-.39-1.07-.39-1.77Zm1.64,.09c0,.6,.14,1.06,.43,1.38,.28,.32,.64,.48,1.05,.48s.77-.16,1.05-.48c.28-.32,.42-.78,.42-1.39s-.14-1.05-.42-1.36c-.28-.32-.63-.48-1.05-.48s-.77,.16-1.05,.48c-.28,.32-.43,.78-.43,1.38Z"/><path d="M1089.09,107.44h-1.6v-3.08c0-.65-.03-1.07-.1-1.27-.07-.19-.18-.34-.33-.45-.15-.11-.34-.16-.55-.16-.28,0-.53,.08-.75,.23-.22,.15-.37,.35-.45,.6-.08,.25-.12,.71-.12,1.39v2.74h-1.6v-6.04h1.48v.89c.53-.68,1.19-1.02,1.99-1.02,.35,0,.67,.06,.97,.19s.51,.29,.66,.49c.15,.2,.25,.42,.31,.67,.06,.25,.09,.61,.09,1.07v3.75Z"/><path d="M1090.14,105.72l1.6-.24c.07,.31,.21,.55,.42,.71,.21,.16,.5,.24,.88,.24,.41,0,.72-.08,.93-.23,.14-.11,.21-.25,.21-.43,0-.12-.04-.22-.11-.3-.08-.08-.26-.15-.53-.21-1.29-.28-2.11-.54-2.45-.78-.48-.33-.72-.78-.72-1.36,0-.52,.21-.96,.62-1.32,.41-.36,1.05-.53,1.92-.53s1.44,.13,1.84,.4c.4,.27,.68,.67,.83,1.19l-1.51,.28c-.06-.23-.19-.42-.37-.54-.18-.12-.44-.19-.77-.19-.42,0-.72,.06-.9,.18-.12,.08-.18,.19-.18,.32,0,.11,.05,.21,.16,.29,.14,.11,.64,.26,1.49,.45s1.45,.43,1.78,.71c.33,.28,.5,.68,.5,1.19,0,.55-.23,1.03-.69,1.43-.46,.4-1.15,.6-2.05,.6-.82,0-1.47-.17-1.95-.5s-.79-.79-.94-1.36Z"/><path d="M1100.43,107.44v-8.34h6.18v1.41h-4.5v1.85h4.19v1.4h-4.19v2.27h4.66v1.4h-6.34Z"/><path d="M1113.68,107.44h-1.6v-3.08c0-.65-.03-1.07-.1-1.27-.07-.19-.18-.34-.33-.45-.15-.11-.34-.16-.55-.16-.28,0-.53,.08-.75,.23-.22,.15-.37,.35-.45,.6-.08,.25-.12,.71-.12,1.39v2.74h-1.6v-6.04h1.48v.89c.53-.68,1.19-1.02,1.99-1.02,.35,0,.67,.06,.97,.19s.51,.29,.66,.49c.15,.2,.25,.42,.31,.67,.06,.25,.09,.61,.09,1.07v3.75Z"/><path d="M1115.15,107.84l1.83,.22c.03,.21,.1,.36,.21,.44,.15,.11,.39,.17,.72,.17,.42,0,.73-.06,.94-.19,.14-.08,.25-.22,.32-.4,.05-.13,.07-.38,.07-.73v-.88c-.48,.65-1.08,.98-1.81,.98-.81,0-1.45-.34-1.93-1.03-.37-.54-.56-1.22-.56-2.02,0-1.01,.24-1.79,.73-2.32,.49-.53,1.09-.8,1.82-.8s1.36,.33,1.85,.98v-.85h1.5v5.42c0,.71-.06,1.25-.18,1.6s-.28,.63-.49,.83c-.21,.2-.5,.36-.85,.47s-.8,.17-1.34,.17c-1.02,0-1.75-.18-2.18-.53-.43-.35-.64-.8-.64-1.33,0-.05,0-.12,0-.19Zm1.43-3.54c0,.64,.12,1.11,.37,1.41,.25,.3,.55,.45,.92,.45,.39,0,.72-.15,.99-.46s.4-.76,.4-1.36-.13-1.09-.39-1.39-.58-.45-.98-.45-.7,.15-.95,.45c-.25,.3-.37,.75-.37,1.36Z"/><path d="M1122.41,100.58v-1.48h1.6v1.48h-1.6Zm0,6.86v-6.04h1.6v6.04h-1.6Z"/><path d="M1131.14,107.44h-1.6v-3.08c0-.65-.03-1.07-.1-1.27-.07-.19-.18-.34-.33-.45-.15-.11-.34-.16-.55-.16-.28,0-.53,.08-.75,.23-.22,.15-.37,.35-.45,.6-.08,.25-.12,.71-.12,1.39v2.74h-1.6v-6.04h1.48v.89c.53-.68,1.19-1.02,1.99-1.02,.35,0,.67,.06,.97,.19s.51,.29,.66,.49c.15,.2,.25,.42,.31,.67,.06,.25,.09,.61,.09,1.07v3.75Z"/><path d="M1136.26,105.52l1.59,.27c-.2,.58-.53,1.03-.97,1.33-.44,.31-.99,.46-1.66,.46-1.05,0-1.83-.34-2.33-1.03-.4-.55-.6-1.24-.6-2.08,0-1,.26-1.78,.78-2.35s1.18-.85,1.98-.85c.9,0,1.61,.3,2.13,.89s.77,1.5,.75,2.73h-4c.01,.47,.14,.84,.39,1.11,.25,.26,.55,.4,.92,.4,.25,0,.46-.07,.63-.2,.17-.14,.3-.36,.39-.66Zm.09-1.62c-.01-.46-.13-.81-.36-1.05s-.5-.36-.83-.36c-.35,0-.64,.13-.86,.38s-.34,.6-.34,1.03h2.39Z"/><path d="M1006.54,122v-6.93h-2.47v-1.41h6.62v1.41h-2.47v6.93h-1.68Z"/><path d="M1013.3,122h-1.6v-6.04h1.48v.86c.25-.41,.48-.67,.69-.8s.43-.19,.69-.19c.36,0,.71,.1,1.05,.3l-.49,1.39c-.27-.17-.52-.26-.75-.26s-.41,.06-.57,.19c-.16,.12-.28,.35-.37,.67-.09,.32-.13,1-.13,2.02v1.87Z"/><path d="M1017.49,117.8l-1.45-.26c.16-.58,.44-1.02,.84-1.3,.4-.28,.99-.42,1.77-.42,.71,0,1.24,.08,1.59,.25,.35,.17,.59,.38,.74,.64s.21,.74,.21,1.43l-.02,1.87c0,.53,.03,.92,.08,1.17,.05,.25,.15,.52,.29,.81h-1.58c-.04-.11-.09-.26-.15-.47-.03-.09-.05-.16-.06-.19-.27,.27-.56,.46-.88,.6s-.64,.2-1,.2c-.62,0-1.11-.17-1.47-.51-.36-.34-.54-.76-.54-1.28,0-.34,.08-.65,.24-.91,.16-.27,.39-.47,.69-.61s.72-.27,1.27-.37c.75-.14,1.26-.27,1.55-.39v-.16c0-.31-.08-.53-.23-.66-.15-.13-.44-.2-.86-.2-.28,0-.51,.06-.67,.17-.16,.11-.29,.31-.39,.59Zm2.14,1.3c-.2,.07-.53,.15-.97,.24-.44,.1-.73,.19-.87,.28-.21,.15-.31,.34-.31,.56s.08,.42,.25,.58,.38,.24,.64,.24c.29,0,.56-.09,.82-.28,.19-.14,.32-.32,.38-.53,.04-.14,.06-.4,.06-.78v-.32Z"/><path d="M1028.27,122h-1.6v-3.08c0-.65-.03-1.07-.1-1.27-.07-.19-.18-.34-.33-.45-.15-.11-.34-.16-.55-.16-.28,0-.53,.08-.75,.23-.22,.15-.37,.35-.45,.6-.08,.25-.12,.71-.12,1.39v2.74h-1.6v-6.04h1.48v.89c.53-.68,1.19-1.02,1.99-1.02,.35,0,.67,.06,.97,.19s.51,.29,.66,.49c.15,.2,.25,.42,.31,.67,.06,.25,.09,.61,.09,1.07v3.75Z"/><path d="M1029.33,120.28l1.6-.24c.07,.31,.21,.55,.42,.71,.21,.16,.5,.24,.88,.24,.41,0,.72-.08,.93-.23,.14-.11,.21-.25,.21-.43,0-.12-.04-.22-.11-.3-.08-.08-.26-.15-.53-.21-1.29-.28-2.11-.54-2.45-.78-.48-.33-.72-.78-.72-1.36,0-.52,.21-.96,.62-1.32,.41-.36,1.05-.53,1.92-.53s1.44,.13,1.84,.4c.4,.27,.68,.67,.83,1.19l-1.51,.28c-.06-.23-.19-.42-.37-.54-.18-.12-.44-.19-.77-.19-.42,0-.72,.06-.9,.18-.12,.08-.18,.19-.18,.32,0,.11,.05,.21,.16,.29,.14,.11,.64,.26,1.49,.45s1.45,.43,1.78,.71c.33,.28,.5,.68,.5,1.19,0,.55-.23,1.03-.69,1.43-.46,.4-1.15,.6-2.05,.6-.82,0-1.47-.17-1.95-.5s-.79-.79-.94-1.36Z"/><path d="M1036.32,115.96h1.49v.89c.19-.3,.46-.55,.78-.74,.33-.19,.7-.28,1.1-.28,.7,0,1.3,.27,1.79,.82,.49,.55,.73,1.32,.73,2.3s-.25,1.79-.74,2.35c-.49,.56-1.09,.84-1.79,.84-.33,0-.64-.07-.91-.2s-.56-.36-.86-.68v3.04h-1.6v-8.34Zm1.58,2.92c0,.68,.13,1.18,.4,1.5s.6,.49,.98,.49,.68-.15,.93-.45c.25-.3,.37-.79,.37-1.46,0-.63-.13-1.1-.38-1.41-.25-.31-.57-.46-.94-.46s-.71,.15-.97,.45-.39,.75-.39,1.34Z"/><path d="M1043.11,118.89c0-.53,.13-1.04,.39-1.54,.26-.5,.63-.88,1.11-1.14,.48-.26,1.02-.39,1.61-.39,.91,0,1.66,.3,2.25,.89,.58,.59,.88,1.34,.88,2.25s-.29,1.67-.88,2.27c-.59,.6-1.33,.9-2.23,.9-.55,0-1.08-.12-1.58-.38-.5-.25-.88-.62-1.15-1.1-.26-.48-.39-1.07-.39-1.77Zm1.64,.09c0,.6,.14,1.06,.43,1.38,.28,.32,.64,.48,1.05,.48s.77-.16,1.05-.48c.28-.32,.42-.78,.42-1.39s-.14-1.05-.42-1.36c-.28-.32-.63-.48-1.05-.48s-.77,.16-1.05,.48c-.28,.32-.43,.78-.43,1.38Z"/><path d="M1052.12,122h-1.6v-6.04h1.48v.86c.25-.41,.48-.67,.69-.8s.43-.19,.69-.19c.36,0,.71,.1,1.05,.3l-.49,1.39c-.27-.17-.52-.26-.75-.26s-.41,.06-.57,.19c-.16,.12-.28,.35-.37,.67-.09,.32-.13,1-.13,2.02v1.87Z"/><path d="M1057.89,115.96v1.27h-1.09v2.43c0,.49,.01,.78,.03,.86,.02,.08,.07,.15,.14,.2,.07,.05,.16,.08,.27,.08,.15,0,.36-.05,.64-.15l.14,1.24c-.37,.16-.79,.24-1.26,.24-.29,0-.55-.05-.78-.14-.23-.1-.4-.22-.51-.38-.11-.15-.18-.36-.22-.62-.03-.19-.05-.56-.05-1.13v-2.63h-.73v-1.27h.73v-1.2l1.6-.93v2.13h1.09Z"/><path d="M1062.29,122v-8.27h1.68v6.86h4.19v1.4h-5.87Z"/><path d="M1070.55,117.8l-1.45-.26c.16-.58,.44-1.02,.84-1.3,.4-.28,.99-.42,1.77-.42,.71,0,1.24,.08,1.59,.25,.35,.17,.59,.38,.74,.64s.21,.74,.21,1.43l-.02,1.87c0,.53,.03,.92,.08,1.17,.05,.25,.15,.52,.29,.81h-1.58c-.04-.11-.09-.26-.15-.47-.03-.09-.05-.16-.06-.19-.27,.27-.56,.46-.88,.6s-.64,.2-1,.2c-.62,0-1.11-.17-1.47-.51-.36-.34-.54-.76-.54-1.28,0-.34,.08-.65,.24-.91,.16-.27,.39-.47,.69-.61s.72-.27,1.27-.37c.75-.14,1.26-.27,1.55-.39v-.16c0-.31-.08-.53-.23-.66-.15-.13-.44-.2-.86-.2-.28,0-.51,.06-.67,.17-.16,.11-.29,.31-.39,.59Zm2.14,1.3c-.2,.07-.53,.15-.97,.24-.44,.1-.73,.19-.87,.28-.21,.15-.31,.34-.31,.56s.08,.42,.25,.58,.38,.24,.64,.24c.29,0,.56-.09,.82-.28,.19-.14,.32-.32,.38-.53,.04-.14,.06-.4,.06-.78v-.32Z"/><path d="M1075.07,115.96h1.7l1.44,4.29,1.41-4.29h1.65l-2.13,5.81-.38,1.05c-.14,.35-.27,.62-.4,.81-.13,.19-.27,.34-.44,.45s-.37,.21-.61,.27-.51,.1-.82,.1-.61-.03-.9-.1l-.14-1.25c.25,.05,.48,.07,.68,.07,.37,0,.65-.11,.82-.33,.18-.22,.31-.5,.41-.83l-2.3-6.06Z"/><path d="M1085.8,120.08l1.59,.27c-.2,.58-.53,1.03-.97,1.33-.44,.31-.99,.46-1.66,.46-1.05,0-1.83-.34-2.33-1.03-.4-.55-.6-1.24-.6-2.08,0-1,.26-1.78,.78-2.35s1.18-.85,1.98-.85c.9,0,1.61,.3,2.13,.89s.77,1.5,.75,2.73h-4c.01,.47,.14,.84,.39,1.11,.25,.26,.55,.4,.92,.4,.25,0,.46-.07,.63-.2,.17-.14,.3-.36,.39-.66Zm.09-1.62c-.01-.46-.13-.81-.36-1.05s-.5-.36-.83-.36c-.35,0-.64,.13-.86,.38s-.34,.6-.34,1.03h2.39Z"/><path d="M1090.31,122h-1.6v-6.04h1.48v.86c.25-.41,.48-.67,.69-.8s.43-.19,.69-.19c.36,0,.71,.1,1.05,.3l-.49,1.39c-.27-.17-.52-.26-.75-.26s-.41,.06-.57,.19c-.16,.12-.28,.35-.37,.67-.09,.32-.13,1-.13,2.02v1.87Z"/><path d="M1096.22,117.88c0-.85,.13-1.56,.38-2.14,.19-.42,.45-.81,.78-1.14,.33-.34,.69-.59,1.08-.75,.52-.22,1.12-.33,1.8-.33,1.23,0,2.21,.38,2.95,1.14,.74,.76,1.11,1.82,1.11,3.18s-.37,2.4-1.1,3.16c-.73,.76-1.71,1.14-2.93,1.14s-2.23-.38-2.96-1.13-1.1-1.8-1.1-3.12Zm1.73-.06c0,.94,.22,1.66,.65,2.15,.44,.49,.99,.73,1.66,.73s1.22-.24,1.65-.73,.65-1.21,.65-2.18-.21-1.67-.63-2.14c-.42-.47-.98-.71-1.67-.71s-1.25,.24-1.68,.71c-.42,.48-.64,1.19-.64,2.15Z"/><path d="M1104.91,115.96h.89v-.45c0-.51,.05-.89,.16-1.14,.11-.25,.31-.45,.6-.61,.29-.16,.66-.24,1.1-.24s.9,.07,1.34,.2l-.22,1.11c-.25-.06-.5-.09-.73-.09s-.4,.05-.5,.16c-.1,.11-.15,.32-.15,.62v.43h1.19v1.26h-1.19v4.78h-1.6v-4.78h-.89v-1.26Z"/><path d="M1108.79,115.96h.89v-.45c0-.51,.05-.89,.16-1.14,.11-.25,.31-.45,.6-.61,.29-.16,.66-.24,1.1-.24s.9,.07,1.34,.2l-.22,1.11c-.25-.06-.5-.09-.73-.09s-.4,.05-.5,.16c-.1,.11-.15,.32-.15,.62v.43h1.19v1.26h-1.19v4.78h-1.6v-4.78h-.89v-1.26Z"/><path d="M1113.36,122v-8.34h1.6v8.34h-1.6Z"/><path d="M1116.23,118.89c0-.53,.13-1.04,.39-1.54,.26-.5,.63-.88,1.11-1.14,.48-.26,1.02-.39,1.61-.39,.91,0,1.66,.3,2.25,.89,.58,.59,.88,1.34,.88,2.25s-.29,1.67-.88,2.27c-.59,.6-1.33,.9-2.23,.9-.55,0-1.08-.12-1.58-.38-.5-.25-.88-.62-1.15-1.1-.26-.48-.39-1.07-.39-1.77Zm1.64,.09c0,.6,.14,1.06,.43,1.38,.28,.32,.64,.48,1.05,.48s.77-.16,1.05-.48c.28-.32,.42-.78,.42-1.39s-.14-1.05-.42-1.36c-.28-.32-.63-.48-1.05-.48s-.77,.16-1.05,.48c-.28,.32-.43,.78-.43,1.38Z"/><path d="M1124.91,117.8l-1.45-.26c.16-.58,.44-1.02,.84-1.3,.4-.28,.99-.42,1.77-.42,.71,0,1.24,.08,1.59,.25,.35,.17,.59,.38,.74,.64s.21,.74,.21,1.43l-.02,1.87c0,.53,.03,.92,.08,1.17,.05,.25,.15,.52,.29,.81h-1.58c-.04-.11-.09-.26-.15-.47-.03-.09-.05-.16-.06-.19-.27,.27-.56,.46-.88,.6s-.64,.2-1,.2c-.62,0-1.11-.17-1.47-.51-.36-.34-.54-.76-.54-1.28,0-.34,.08-.65,.24-.91,.16-.27,.39-.47,.69-.61s.72-.27,1.27-.37c.75-.14,1.26-.27,1.55-.39v-.16c0-.31-.08-.53-.23-.66-.15-.13-.44-.2-.86-.2-.28,0-.51,.06-.67,.17-.16,.11-.29,.31-.39,.59Zm2.14,1.3c-.2,.07-.53,.15-.97,.24-.44,.1-.73,.19-.87,.28-.21,.15-.31,.34-.31,.56s.08,.42,.25,.58,.38,.24,.64,.24c.29,0,.56-.09,.82-.28,.19-.14,.32-.32,.38-.53,.04-.14,.06-.4,.06-.78v-.32Z"/><path d="M1135.73,122h-1.48v-.89c-.25,.35-.54,.6-.87,.77-.34,.17-.67,.25-1.02,.25-.69,0-1.29-.28-1.78-.84s-.74-1.34-.74-2.34,.24-1.8,.72-2.33,1.09-.8,1.83-.8c.67,0,1.26,.28,1.75,.84v-3h1.6v8.34Zm-4.26-3.15c0,.64,.09,1.11,.27,1.4,.26,.42,.62,.63,1.08,.63,.37,0,.68-.16,.94-.47,.26-.31,.39-.78,.39-1.4,0-.69-.12-1.19-.38-1.5-.25-.31-.57-.46-.96-.46s-.7,.15-.95,.45c-.26,.3-.38,.75-.38,1.35Z"/></g><text transform="translate(1009.52 237.17)" font-family="ArialMT, Arial" font-size="14.56"><tspan x="0" y="0">4 x LIN</tspan></text><text transform="translate(1020.01 196.41)" font-family="ArialMT, Arial" font-size="14.56"><tspan x="0" y="0">Flexible Buffers</tspan></text><text transform="translate(1002.6 315.92)" font-family="ArialMT, Arial" font-size="14.56"><tspan x="0" y="0">Global Timestamping</tspan></text><text transform="translate(1019.8 275.44)" font-family="ArialMT, Arial" font-size="14.56"><tspan x="0" y="0">Security Offload</tspan></text><rect x="1072.42" y="214.33" width="72.13" height="35.18" fill="#d3d1e9"/><text transform="translate(1086.34 237.42)" font-family="ArialMT, Arial" font-size="14.56"><tspan x="0" y="0">4 x SPI</tspan></text><rect x="996.48" y="134.47" width="87.84" height="35.18" fill="#d3d1e9"/><text transform="translate(998.13 157.77)" font-family="ArialMT, Arial" font-size="14.56" letter-spacing="-.01em"><tspan x="0" y="0">16 x CAN FD</tspan></text><rect x="1086.76" y="134.48" width="57.88" height="35.18" fill="#d3d1e9"/><text transform="translate(1089.39 157.56)" font-family="ArialMT, Arial" font-size="14.56" letter-spacing="0em"><tspan x="0" y="0">FlexRay</tspan></text><text transform="translate(1005.53 373.38)" fill="#030404" font-family="Arial-BoldMT, Arial" font-size="14.56"><tspan x="0" y="0">Ethernet Networks</tspan></text><rect x="997.54" y="474.82" width="142.8" height="37.73" fill="#d3d1e9"/><rect x="997.54" y="516.77" width="142.8" height="37.73" fill="#d3d1e9"/><rect x="997.54" y="558.94" width="142.7" height="37.73" fill="#d3d1e9"/><g><path d="M1017.63,400.99v-8.34h2.7c1.02,0,1.69,.04,2,.13,.48,.12,.88,.4,1.2,.82,.32,.42,.48,.96,.48,1.62,0,.51-.09,.94-.28,1.29-.19,.35-.42,.62-.71,.82s-.58,.33-.87,.4c-.4,.08-.98,.12-1.75,.12h-1.1v3.14h-1.68Zm1.68-6.93v2.37h.92c.66,0,1.11-.04,1.33-.13,.22-.09,.4-.22,.53-.41,.13-.19,.19-.4,.19-.65,0-.3-.09-.55-.27-.75s-.4-.32-.68-.37c-.2-.04-.6-.06-1.21-.06h-.81Z"/><path d="M1026.58,396.8l-1.45-.26c.16-.58,.44-1.02,.84-1.3,.4-.28,.99-.42,1.77-.42,.71,0,1.24,.08,1.59,.25,.35,.17,.59,.38,.74,.64s.21,.74,.21,1.43l-.02,1.87c0,.53,.03,.92,.08,1.17,.05,.25,.15,.52,.29,.81h-1.58c-.04-.11-.09-.26-.15-.47-.03-.09-.05-.16-.06-.19-.27,.27-.56,.46-.88,.6s-.64,.2-1,.2c-.62,0-1.11-.17-1.47-.51-.36-.34-.54-.76-.54-1.28,0-.34,.08-.65,.24-.91,.16-.27,.39-.47,.69-.61s.72-.27,1.27-.37c.75-.14,1.26-.27,1.55-.39v-.16c0-.31-.08-.53-.23-.66-.15-.13-.44-.2-.86-.2-.28,0-.51,.06-.67,.17-.16,.11-.29,.31-.39,.59Zm2.14,1.3c-.2,.07-.53,.15-.97,.24-.44,.1-.73,.19-.87,.28-.21,.15-.31,.34-.31,.56s.08,.42,.25,.58,.38,.24,.64,.24c.29,0,.56-.09,.82-.28,.19-.14,.32-.32,.38-.53,.04-.14,.06-.4,.06-.78v-.32Z"/><path d="M1037.13,396.74l-1.58,.28c-.05-.31-.17-.55-.36-.71-.19-.16-.43-.24-.73-.24-.4,0-.72,.14-.95,.41s-.35,.73-.35,1.38c0,.72,.12,1.22,.36,1.52,.24,.3,.56,.44,.97,.44,.3,0,.55-.09,.74-.26s.33-.47,.41-.89l1.57,.27c-.16,.72-.48,1.26-.94,1.63s-1.08,.55-1.86,.55c-.88,0-1.59-.28-2.11-.84-.53-.56-.79-1.33-.79-2.31s.26-1.77,.79-2.33c.53-.56,1.24-.83,2.14-.83,.74,0,1.32,.16,1.75,.47s.75,.8,.94,1.45Z"/><path d="M1038.28,400.99v-8.34h1.6v4.42l1.87-2.13h1.97l-2.06,2.21,2.21,3.83h-1.72l-1.52-2.71-.75,.78v1.93h-1.6Z"/><path d="M1048.31,399.07l1.59,.27c-.2,.58-.53,1.03-.97,1.33-.44,.31-.99,.46-1.66,.46-1.05,0-1.83-.34-2.33-1.03-.4-.55-.6-1.24-.6-2.08,0-1,.26-1.78,.78-2.35s1.18-.85,1.98-.85c.9,0,1.61,.3,2.13,.89s.77,1.5,.75,2.73h-4c.01,.47,.14,.84,.39,1.11,.25,.26,.55,.4,.92,.4,.25,0,.46-.07,.63-.2,.17-.14,.3-.36,.39-.66Zm.09-1.62c-.01-.46-.13-.81-.36-1.05s-.5-.36-.83-.36c-.35,0-.64,.13-.86,.38s-.34,.6-.34,1.03h2.39Z"/><path d="M1054.06,394.96v1.27h-1.09v2.43c0,.49,.01,.78,.03,.86,.02,.08,.07,.15,.14,.2,.07,.05,.16,.08,.27,.08,.15,0,.36-.05,.64-.15l.14,1.24c-.37,.16-.79,.24-1.26,.24-.29,0-.55-.05-.78-.14-.23-.1-.4-.22-.51-.38-.11-.15-.18-.36-.22-.62-.03-.19-.05-.56-.05-1.13v-2.63h-.73v-1.27h.73v-1.2l1.6-.93v2.13h1.09Z"/><path d="M1058.43,400.99v-8.34h5.71v1.41h-4.03v1.97h3.48v1.41h-3.48v3.54h-1.68Z"/><path d="M1065.15,397.89c0-.53,.13-1.04,.39-1.54,.26-.5,.63-.88,1.11-1.14,.48-.26,1.02-.39,1.61-.39,.91,0,1.66,.3,2.25,.89,.58,.59,.88,1.34,.88,2.25s-.29,1.67-.88,2.27c-.59,.6-1.33,.9-2.23,.9-.55,0-1.08-.12-1.58-.38-.5-.25-.88-.62-1.15-1.1-.26-.48-.39-1.07-.39-1.77Zm1.64,.09c0,.6,.14,1.06,.43,1.38,.28,.32,.64,.48,1.05,.48s.77-.16,1.05-.48c.28-.32,.42-.78,.42-1.39s-.14-1.05-.42-1.36c-.28-.32-.63-.48-1.05-.48s-.77,.16-1.05,.48c-.28,.32-.43,.78-.43,1.38Z"/><path d="M1074.16,400.99h-1.6v-6.04h1.48v.86c.25-.41,.48-.67,.69-.8s.43-.19,.69-.19c.36,0,.71,.1,1.05,.3l-.49,1.39c-.27-.17-.52-.26-.75-.26s-.41,.06-.57,.19c-.16,.12-.28,.35-.37,.67-.09,.32-.13,1-.13,2.02v1.87Z"/><path d="M1078.29,400.99l-1.91-6.04h1.55l1.13,3.96,1.04-3.96h1.54l1.01,3.96,1.15-3.96h1.58l-1.94,6.04h-1.54l-1.04-3.88-1.02,3.88h-1.55Z"/><path d="M1087.42,396.8l-1.45-.26c.16-.58,.44-1.02,.84-1.3,.4-.28,.99-.42,1.77-.42,.71,0,1.24,.08,1.59,.25,.35,.17,.59,.38,.74,.64s.21,.74,.21,1.43l-.02,1.87c0,.53,.03,.92,.08,1.17,.05,.25,.15,.52,.29,.81h-1.58c-.04-.11-.09-.26-.15-.47-.03-.09-.05-.16-.06-.19-.27,.27-.56,.46-.88,.6s-.64,.2-1,.2c-.62,0-1.11-.17-1.47-.51-.36-.34-.54-.76-.54-1.28,0-.34,.08-.65,.24-.91,.16-.27,.39-.47,.69-.61s.72-.27,1.27-.37c.75-.14,1.26-.27,1.55-.39v-.16c0-.31-.08-.53-.23-.66-.15-.13-.44-.2-.86-.2-.28,0-.51,.06-.67,.17-.16,.11-.29,.31-.39,.59Zm2.14,1.3c-.2,.07-.53,.15-.97,.24-.44,.1-.73,.19-.87,.28-.21,.15-.31,.34-.31,.56s.08,.42,.25,.58,.38,.24,.64,.24c.29,0,.56-.09,.82-.28,.19-.14,.32-.32,.38-.53,.04-.14,.06-.4,.06-.78v-.32Z"/><path d="M1094.23,400.99h-1.6v-6.04h1.48v.86c.25-.41,.48-.67,.69-.8s.43-.19,.69-.19c.36,0,.71,.1,1.05,.3l-.49,1.39c-.27-.17-.52-.26-.75-.26s-.41,.06-.57,.19c-.16,.12-.28,.35-.37,.67-.09,.32-.13,1-.13,2.02v1.87Z"/><path d="M1102.77,400.99h-1.48v-.89c-.25,.35-.54,.6-.87,.77-.34,.17-.67,.25-1.02,.25-.69,0-1.29-.28-1.78-.84s-.74-1.34-.74-2.34,.24-1.8,.72-2.33,1.09-.8,1.83-.8c.67,0,1.26,.28,1.75,.84v-3h1.6v8.34Zm-4.26-3.15c0,.64,.09,1.11,.27,1.4,.26,.42,.62,.63,1.08,.63,.37,0,.68-.16,.94-.47,.26-.31,.39-.78,.39-1.4,0-.69-.12-1.19-.38-1.5-.25-.31-.57-.46-.96-.46s-.7,.15-.95,.45c-.26,.3-.38,.75-.38,1.35Z"/><path d="M1104.35,394.14v-1.48h1.6v1.48h-1.6Zm0,6.86v-6.04h1.6v6.04h-1.6Z"/><path d="M1113.08,400.99h-1.6v-3.08c0-.65-.03-1.07-.1-1.27-.07-.19-.18-.34-.33-.45-.15-.11-.34-.16-.55-.16-.28,0-.53,.08-.75,.23-.22,.15-.37,.35-.45,.6-.08,.25-.12,.71-.12,1.39v2.74h-1.6v-6.04h1.48v.89c.53-.68,1.19-1.02,1.99-1.02,.35,0,.67,.06,.97,.19s.51,.29,.66,.49c.15,.2,.25,.42,.31,.67,.06,.25,.09,.61,.09,1.07v3.75Z"/><path d="M1114.55,401.39l1.83,.22c.03,.21,.1,.36,.21,.44,.15,.11,.39,.17,.72,.17,.42,0,.73-.06,.94-.19,.14-.08,.25-.22,.32-.4,.05-.13,.07-.38,.07-.73v-.88c-.48,.65-1.08,.98-1.81,.98-.81,0-1.45-.34-1.93-1.03-.37-.54-.56-1.22-.56-2.02,0-1.01,.24-1.79,.73-2.32,.49-.53,1.09-.8,1.82-.8s1.36,.33,1.85,.98v-.85h1.5v5.42c0,.71-.06,1.25-.18,1.6s-.28,.63-.49,.83c-.21,.2-.5,.36-.85,.47s-.8,.17-1.34,.17c-1.02,0-1.75-.18-2.18-.53-.43-.35-.64-.8-.64-1.33,0-.05,0-.12,0-.19Zm1.43-3.54c0,.64,.12,1.11,.37,1.41,.25,.3,.55,.45,.92,.45,.39,0,.72-.15,.99-.46s.4-.76,.4-1.36-.13-1.09-.39-1.39-.58-.45-.98-.45-.7,.15-.95,.45c-.25,.3-.37,.75-.37,1.36Z"/><path d="M1048.7,415.55v-8.34h6.18v1.41h-4.5v1.85h4.19v1.4h-4.19v2.27h4.66v1.4h-6.34Z"/><path d="M1061.95,415.55h-1.6v-3.08c0-.65-.03-1.07-.1-1.27-.07-.19-.18-.34-.33-.45-.15-.11-.34-.16-.55-.16-.28,0-.53,.08-.75,.23-.22,.15-.37,.35-.45,.6-.08,.25-.12,.71-.12,1.39v2.74h-1.6v-6.04h1.48v.89c.53-.68,1.19-1.02,1.99-1.02,.35,0,.67,.06,.97,.19s.51,.29,.66,.49c.15,.2,.25,.42,.31,.67,.06,.25,.09,.61,.09,1.07v3.75Z"/><path d="M1063.42,415.95l1.83,.22c.03,.21,.1,.36,.21,.44,.15,.11,.39,.17,.72,.17,.42,0,.73-.06,.94-.19,.14-.08,.25-.22,.32-.4,.05-.13,.07-.38,.07-.73v-.88c-.48,.65-1.08,.98-1.81,.98-.81,0-1.45-.34-1.93-1.03-.37-.54-.56-1.22-.56-2.02,0-1.01,.24-1.79,.73-2.32,.49-.53,1.09-.8,1.82-.8s1.36,.33,1.85,.98v-.85h1.5v5.42c0,.71-.06,1.25-.18,1.6s-.28,.63-.49,.83c-.21,.2-.5,.36-.85,.47s-.8,.17-1.34,.17c-1.02,0-1.75-.18-2.18-.53-.43-.35-.64-.8-.64-1.33,0-.05,0-.12,0-.19Zm1.43-3.54c0,.64,.12,1.11,.37,1.41,.25,.3,.55,.45,.92,.45,.39,0,.72-.15,.99-.46s.4-.76,.4-1.36-.13-1.09-.39-1.39-.58-.45-.98-.45-.7,.15-.95,.45c-.25,.3-.37,.75-.37,1.36Z"/><path d="M1070.68,408.69v-1.48h1.6v1.48h-1.6Zm0,6.86v-6.04h1.6v6.04h-1.6Z"/><path d="M1079.41,415.55h-1.6v-3.08c0-.65-.03-1.07-.1-1.27-.07-.19-.18-.34-.33-.45-.15-.11-.34-.16-.55-.16-.28,0-.53,.08-.75,.23-.22,.15-.37,.35-.45,.6-.08,.25-.12,.71-.12,1.39v2.74h-1.6v-6.04h1.48v.89c.53-.68,1.19-1.02,1.99-1.02,.35,0,.67,.06,.97,.19s.51,.29,.66,.49c.15,.2,.25,.42,.31,.67,.06,.25,.09,.61,.09,1.07v3.75Z"/><path d="M1084.53,413.63l1.59,.27c-.2,.58-.53,1.03-.97,1.33-.44,.31-.99,.46-1.66,.46-1.05,0-1.83-.34-2.33-1.03-.4-.55-.6-1.24-.6-2.08,0-1,.26-1.78,.78-2.35s1.18-.85,1.98-.85c.9,0,1.61,.3,2.13,.89s.77,1.5,.75,2.73h-4c.01,.47,.14,.84,.39,1.11,.25,.26,.55,.4,.92,.4,.25,0,.46-.07,.63-.2,.17-.14,.3-.36,.39-.66Zm.09-1.62c-.01-.46-.13-.81-.36-1.05s-.5-.36-.83-.36c-.35,0-.64,.13-.86,.38s-.34,.6-.34,1.03h2.39Z"/></g><text transform="translate(1026.21 499.11)" font-family="ArialMT, Arial" font-size="14.56"><tspan x="0" y="0">Classification</tspan></text><text transform="translate(1004.27 583.73)" font-family="ArialMT, Arial" font-size="14.56"><tspan x="0" y="0">IEEE 1588v2 + AVB</tspan></text><text transform="translate(1002.64 541.59)" font-family="ArialMT, Arial" font-size="14.56"><tspan x="0" y="0">Header Manipulation</tspan></text><rect x="997.54" y="425.3" width="142.8" height="45.46" fill="#d3d1e9"/><g><path d="M1009.49,441.6l1.3-.11c.06,.52,.21,.95,.43,1.28s.57,.6,1.05,.81,1.01,.31,1.6,.31c.53,0,.99-.08,1.39-.23,.4-.16,.7-.37,.9-.64s.29-.57,.29-.89-.09-.61-.28-.86-.5-.45-.94-.62c-.28-.11-.9-.28-1.85-.51-.96-.23-1.63-.45-2.01-.65-.5-.26-.87-.58-1.11-.97s-.37-.82-.37-1.3c0-.53,.15-1.02,.45-1.47,.3-.46,.73-.8,1.31-1.04,.57-.24,1.21-.36,1.91-.36,.77,0,1.45,.12,2.04,.37,.59,.25,1.04,.61,1.36,1.1,.32,.48,.49,1.03,.51,1.64l-1.32,.1c-.07-.66-.31-1.16-.72-1.49-.41-.34-1.02-.5-1.82-.5s-1.44,.15-1.82,.46c-.38,.31-.57,.67-.57,1.11,0,.37,.13,.68,.4,.92,.27,.24,.96,.49,2.08,.74s1.89,.48,2.31,.66c.61,.28,1.05,.63,1.34,1.06s.43,.92,.43,1.48-.16,1.08-.48,1.57c-.32,.49-.77,.87-1.37,1.14s-1.26,.41-2.01,.41c-.94,0-1.73-.14-2.37-.41-.64-.28-1.14-.69-1.5-1.24-.36-.55-.55-1.18-.57-1.87Z"/><path d="M1022.3,443.81l.19,1.13c-.36,.08-.68,.11-.97,.11-.46,0-.82-.07-1.08-.22-.26-.15-.44-.34-.54-.58-.1-.24-.16-.74-.16-1.51v-4.34h-.94v-1h.94v-1.87l1.27-.77v2.64h1.29v1h-1.29v4.41c0,.37,.02,.6,.07,.7,.04,.1,.12,.19,.22,.25,.1,.06,.25,.09,.44,.09,.14,0,.33-.02,.56-.05Z"/><path d="M1028.47,444.02c-.47,.4-.93,.69-1.37,.85s-.91,.25-1.41,.25c-.83,0-1.47-.2-1.91-.61-.45-.41-.67-.92-.67-1.55,0-.37,.08-.71,.25-1.01,.17-.31,.39-.55,.66-.74,.27-.18,.58-.32,.92-.42,.25-.07,.63-.13,1.14-.19,1.03-.12,1.79-.27,2.28-.44,0-.17,0-.29,0-.33,0-.52-.12-.89-.36-1.1-.33-.29-.81-.43-1.46-.43-.6,0-1.05,.11-1.33,.32s-.5,.58-.64,1.12l-1.25-.17c.11-.54,.3-.97,.56-1.3,.26-.33,.64-.58,1.13-.76s1.06-.27,1.71-.27,1.17,.08,1.57,.23c.4,.15,.7,.34,.89,.57,.19,.23,.32,.52,.4,.87,.04,.22,.06,.61,.06,1.18v1.71c0,1.19,.03,1.94,.08,2.26,.05,.32,.16,.62,.32,.91h-1.34c-.13-.27-.22-.58-.26-.93Zm-.11-2.86c-.46,.19-1.16,.35-2.09,.48-.53,.08-.9,.16-1.12,.26-.22,.1-.39,.23-.5,.42-.12,.18-.18,.39-.18,.61,0,.34,.13,.62,.39,.85,.26,.23,.64,.34,1.13,.34s.93-.11,1.32-.32c.38-.22,.67-.51,.85-.88,.14-.29,.21-.72,.21-1.28v-.47Z"/><path d="M1034.44,443.81l.19,1.13c-.36,.08-.68,.11-.97,.11-.46,0-.82-.07-1.08-.22-.26-.15-.44-.34-.54-.58-.1-.24-.16-.74-.16-1.51v-4.34h-.94v-1h.94v-1.87l1.27-.77v2.64h1.29v1h-1.29v4.41c0,.37,.02,.6,.07,.7,.04,.1,.12,.19,.22,.25,.1,.06,.25,.09,.44,.09,.14,0,.33-.02,.56-.05Z"/><path d="M1040.86,442.52l1.32,.16c-.21,.77-.59,1.37-1.16,1.8-.56,.43-1.28,.64-2.16,.64-1.1,0-1.98-.34-2.63-1.02-.65-.68-.97-1.63-.97-2.86s.33-2.26,.98-2.96c.65-.7,1.5-1.05,2.54-1.05s1.83,.34,2.47,1.03,.96,1.65,.96,2.9c0,.08,0,.19,0,.34h-5.63c.05,.83,.28,1.46,.7,1.91,.42,.44,.95,.66,1.58,.66,.47,0,.87-.12,1.2-.37,.33-.25,.59-.64,.79-1.18Zm-4.2-2.07h4.21c-.06-.63-.22-1.11-.48-1.43-.41-.49-.94-.74-1.59-.74-.59,0-1.08,.2-1.48,.59-.4,.39-.62,.92-.66,1.58Z"/><path d="M1044.09,444.95v-6.55h-1.13v-1h1.13v-.8c0-.51,.04-.88,.14-1.13,.12-.33,.34-.6,.65-.81,.31-.21,.75-.31,1.3-.31,.36,0,.76,.04,1.19,.13l-.19,1.12c-.27-.05-.52-.07-.75-.07-.39,0-.66,.08-.82,.25s-.24,.48-.24,.93v.7h1.47v1h-1.47v6.55h-1.27Z"/><path d="M1052.78,444.95v-1.11c-.59,.85-1.39,1.28-2.4,1.28-.45,0-.86-.09-1.25-.26-.39-.17-.67-.39-.86-.64s-.32-.57-.39-.95c-.05-.25-.08-.65-.08-1.19v-4.68h1.28v4.19c0,.67,.03,1.12,.08,1.35,.08,.34,.25,.6,.51,.79,.26,.19,.58,.29,.97,.29s.74-.1,1.08-.3c.34-.2,.57-.46,.71-.8s.21-.83,.21-1.47v-4.04h1.28v7.55h-1.14Z"/><path d="M1055.9,444.95v-10.42h1.28v10.42h-1.28Z"/><path d="M1063.6,444.95v-10.42h1.38v10.42h-1.38Z"/><path d="M1067.25,444.95v-7.55h1.15v1.07c.55-.83,1.36-1.24,2.4-1.24,.45,0,.87,.08,1.25,.25s.67,.38,.86,.64c.19,.27,.32,.58,.4,.95,.05,.24,.07,.65,.07,1.24v4.64h-1.28v-4.59c0-.52-.05-.91-.15-1.17-.1-.26-.28-.46-.53-.62-.25-.15-.55-.23-.89-.23-.54,0-1.02,.17-1.41,.52-.4,.35-.59,1-.59,1.97v4.12h-1.28Z"/><path d="M1074.83,442.7l1.27-.2c.07,.51,.27,.9,.59,1.17,.32,.27,.78,.4,1.36,.4s1.02-.12,1.31-.36,.43-.52,.43-.84c0-.29-.13-.52-.38-.68-.18-.11-.61-.26-1.31-.43-.94-.24-1.59-.44-1.95-.62-.36-.17-.64-.41-.82-.72-.19-.31-.28-.64-.28-1.01,0-.34,.08-.65,.23-.93,.15-.29,.36-.52,.63-.71,.2-.15,.47-.27,.81-.37s.71-.15,1.11-.15c.59,0,1.11,.09,1.56,.26s.78,.4,.99,.69c.21,.29,.36,.68,.44,1.17l-1.25,.17c-.06-.39-.22-.69-.49-.91-.27-.22-.66-.33-1.15-.33-.59,0-1.01,.1-1.26,.29-.25,.19-.38,.42-.38,.68,0,.17,.05,.31,.16,.45,.1,.14,.27,.25,.49,.34,.13,.05,.5,.16,1.13,.33,.91,.24,1.54,.44,1.89,.59,.36,.15,.64,.38,.84,.67,.2,.29,.31,.66,.31,1.09s-.12,.83-.37,1.21c-.25,.38-.61,.67-1.08,.87s-1,.31-1.59,.31c-.98,0-1.73-.2-2.24-.61-.51-.41-.84-1.01-.98-1.81Z"/><path d="M1082.62,447.84v-10.44h1.17v.98c.27-.38,.58-.67,.93-.86,.35-.19,.77-.29,1.26-.29,.64,0,1.21,.17,1.71,.5,.49,.33,.86,.8,1.12,1.4,.25,.6,.38,1.27,.38,1.99,0,.77-.14,1.47-.42,2.09-.28,.62-.68,1.09-1.21,1.42-.53,.33-1.08,.49-1.67,.49-.43,0-.81-.09-1.15-.27s-.62-.41-.83-.68v3.67h-1.28Zm1.16-6.62c0,.97,.2,1.69,.59,2.15,.39,.46,.87,.7,1.43,.7s1.06-.24,1.46-.72c.41-.48,.61-1.23,.61-2.24s-.2-1.68-.59-2.16c-.4-.48-.87-.72-1.42-.72s-1.03,.25-1.45,.76c-.42,.51-.63,1.25-.63,2.22Z"/><path d="M1095.89,442.52l1.32,.16c-.21,.77-.59,1.37-1.16,1.8-.56,.43-1.28,.64-2.16,.64-1.1,0-1.98-.34-2.63-1.02-.65-.68-.97-1.63-.97-2.86s.33-2.26,.98-2.96c.65-.7,1.5-1.05,2.54-1.05s1.83,.34,2.47,1.03,.96,1.65,.96,2.9c0,.08,0,.19,0,.34h-5.63c.05,.83,.28,1.46,.7,1.91,.42,.44,.95,.66,1.58,.66,.47,0,.87-.12,1.2-.37,.33-.25,.59-.64,.79-1.18Zm-4.2-2.07h4.21c-.06-.63-.22-1.11-.48-1.43-.41-.49-.94-.74-1.59-.74-.59,0-1.08,.2-1.48,.59-.4,.39-.62,.92-.66,1.58Z"/><path d="M1103.74,442.19l1.26,.16c-.14,.87-.49,1.55-1.06,2.04-.57,.49-1.26,.74-2.09,.74-1.03,0-1.86-.34-2.49-1.01-.63-.67-.94-1.64-.94-2.9,0-.81,.13-1.53,.4-2.14,.27-.61,.68-1.07,1.23-1.38,.55-.31,1.15-.46,1.8-.46,.82,0,1.49,.21,2.01,.62,.52,.41,.86,1,1,1.77l-1.24,.19c-.12-.51-.33-.89-.63-1.14-.3-.26-.66-.38-1.09-.38-.64,0-1.17,.23-1.57,.69-.4,.46-.6,1.19-.6,2.19s.19,1.75,.58,2.21c.39,.46,.9,.69,1.52,.69,.5,0,.92-.15,1.26-.46,.34-.31,.55-.78,.64-1.42Z"/><path d="M1108.89,443.81l.19,1.13c-.36,.08-.68,.11-.97,.11-.46,0-.82-.07-1.08-.22-.26-.15-.44-.34-.54-.58-.1-.24-.16-.74-.16-1.51v-4.34h-.94v-1h.94v-1.87l1.27-.77v2.64h1.29v1h-1.29v4.41c0,.37,.02,.6,.07,.7,.04,.1,.12,.19,.22,.25,.1,.06,.25,.09,.44,.09,.14,0,.33-.02,.56-.05Z"/><path d="M1110.14,436v-1.47h1.28v1.47h-1.28Zm0,8.95v-7.55h1.28v7.55h-1.28Z"/><path d="M1112.9,441.18c0-1.4,.39-2.43,1.17-3.11,.65-.56,1.44-.84,2.37-.84,1.04,0,1.89,.34,2.54,1.02s.99,1.62,.99,2.82c0,.97-.15,1.74-.44,2.29s-.72,.99-1.27,1.3c-.56,.31-1.16,.46-1.82,.46-1.06,0-1.91-.34-2.56-1.02-.65-.68-.98-1.65-.98-2.93Zm1.31,0c0,.97,.21,1.69,.63,2.17,.42,.48,.95,.72,1.59,.72s1.16-.24,1.59-.72c.42-.48,.63-1.22,.63-2.21,0-.93-.21-1.64-.64-2.12-.42-.48-.95-.72-1.58-.72s-1.17,.24-1.59,.72c-.42,.48-.63,1.2-.63,2.17Z"/><path d="M1121.47,444.95v-7.55h1.15v1.07c.55-.83,1.36-1.24,2.4-1.24,.45,0,.87,.08,1.25,.25s.67,.38,.86,.64c.19,.27,.32,.58,.4,.95,.05,.24,.07,.65,.07,1.24v4.64h-1.28v-4.59c0-.52-.05-.91-.15-1.17-.1-.26-.28-.46-.53-.62-.25-.15-.55-.23-.89-.23-.54,0-1.02,.17-1.41,.52-.4,.35-.59,1-.59,1.97v4.12h-1.28Z"/><path d="M1044.84,462.42v-10.42h7.03v1.23h-5.65v3.23h4.89v1.23h-4.89v4.73h-1.38Z"/><path d="M1053.5,453.47v-1.47h1.28v1.47h-1.28Zm0,8.95v-7.55h1.28v7.55h-1.28Z"/><path d="M1056.72,462.42v-7.55h1.15v1.14c.29-.54,.57-.89,.81-1.06,.25-.17,.52-.26,.82-.26,.43,0,.87,.14,1.31,.41l-.44,1.19c-.31-.18-.63-.28-.94-.28-.28,0-.53,.08-.75,.25-.22,.17-.38,.4-.48,.7-.14,.45-.21,.95-.21,1.49v3.95h-1.28Z"/><path d="M1066.75,459.99l1.32,.16c-.21,.77-.59,1.37-1.16,1.8-.56,.43-1.28,.64-2.16,.64-1.1,0-1.98-.34-2.63-1.02-.65-.68-.97-1.63-.97-2.86s.33-2.26,.98-2.96c.65-.7,1.5-1.05,2.54-1.05s1.83,.34,2.47,1.03c.64,.69,.96,1.65,.96,2.9,0,.08,0,.19,0,.34h-5.63c.05,.83,.28,1.46,.7,1.91,.42,.44,.95,.66,1.58,.66,.47,0,.87-.12,1.2-.37,.33-.25,.59-.64,.79-1.18Zm-4.2-2.07h4.21c-.06-.64-.22-1.11-.48-1.43-.41-.49-.94-.74-1.59-.74-.59,0-1.08,.2-1.48,.59s-.62,.92-.66,1.58Z"/><path d="M1071.07,462.42l-2.31-7.55h1.32l1.2,4.36,.45,1.62c.02-.08,.15-.6,.39-1.56l1.2-4.42h1.31l1.13,4.38,.38,1.44,.43-1.46,1.29-4.36h1.24l-2.36,7.55h-1.33l-1.2-4.52-.29-1.29-1.53,5.81h-1.34Z"/><path d="M1085.11,461.49c-.47,.4-.93,.69-1.37,.85s-.91,.25-1.41,.25c-.83,0-1.47-.2-1.91-.61-.45-.41-.67-.92-.67-1.55,0-.37,.08-.71,.25-1.01,.17-.31,.39-.55,.66-.74,.27-.18,.58-.32,.92-.42,.25-.07,.63-.13,1.14-.19,1.03-.12,1.79-.27,2.28-.44,0-.17,0-.29,0-.33,0-.52-.12-.89-.36-1.1-.33-.29-.81-.43-1.46-.43-.6,0-1.05,.11-1.33,.32s-.5,.58-.64,1.12l-1.25-.17c.11-.54,.3-.97,.56-1.3,.26-.33,.64-.58,1.13-.76s1.06-.27,1.71-.27,1.17,.08,1.57,.23c.4,.15,.7,.34,.89,.57,.19,.23,.32,.52,.4,.87,.04,.22,.06,.61,.06,1.18v1.71c0,1.19,.03,1.94,.08,2.26,.05,.32,.16,.62,.32,.91h-1.34c-.13-.27-.22-.58-.26-.93Zm-.11-2.86c-.46,.19-1.16,.35-2.09,.48-.53,.08-.9,.16-1.12,.26-.22,.1-.39,.23-.5,.42-.12,.18-.18,.39-.18,.61,0,.34,.13,.62,.39,.85,.26,.23,.64,.34,1.13,.34s.93-.11,1.32-.32c.38-.22,.67-.51,.85-.88,.14-.29,.21-.72,.21-1.28v-.47Z"/><path d="M1088.26,462.42v-10.42h1.28v10.42h-1.28Z"/><path d="M1091.49,462.42v-10.42h1.28v10.42h-1.28Z"/></g><rect x="997.52" y="601.04" width="45.18" height="37.73" fill="#d3d1e9"/><rect x="1046.18" y="601.04" width="45.18" height="37.73" fill="#d3d1e9"/><rect x="1094.84" y="601.04" width="45.18" height="37.73" fill="#d3d1e9"/><text transform="translate(999.54 617.06)" font-family="ArialMT, Arial" font-size="11.65"><tspan letter-spacing="0em"><tspan x="0" y="0">2.5-GbE</tspan></tspan><tspan letter-spacing="0em"><tspan x="8.56" y="14.56">MAC</tspan></tspan></text><text transform="translate(1052.3 617.5)" font-family="ArialMT, Arial" font-size="11.65"><tspan letter-spacing="0em"><tspan x="0" y="0">1-GbE</tspan></tspan><tspan letter-spacing="0em"><tspan x="3.8" y="14.56">MAC</tspan></tspan></text><text transform="translate(1100.63 616.31)" font-family="ArialMT, Arial" font-size="11.65"><tspan letter-spacing="0em"><tspan x="0" y="0">1-GbE</tspan></tspan><tspan letter-spacing="0em"><tspan x="3.8" y="14.56">MAC</tspan></tspan></text><rect x="274.46" y="336.67" width="684.57" height="81.35" fill="#e8ecec"/><rect x="288.05" y="368.53" width="657.14" height="34.26" fill="#e79165"/><text transform="translate(560.29 390.23)" fill="#030404" font-family="ArialMT, Arial" font-size="14.56"><tspan x="0" y="0">Safe Interconnect</tspan></text><rect x="626.96" y="426.33" width="332.06" height="235.22" fill="#e8ecec"/><text transform="translate(720.44 454.09)" fill="#030404" font-family="Arial-BoldMT, Arial" font-size="17.47"><tspan x="0" y="0">Timers and ADCs</tspan></text><text transform="translate(917.06 451.18)" font-family="ArialMT, Arial" font-size="17.06"><tspan x="0" y="0"> </tspan></text><rect x="636.8" y="514.57" width="309.17" height="42.93" fill="#6facde"/><rect x="637.41" y="608.22" width="308.56" height="42.93" fill="#6facde"/><text transform="translate(718.01 635.6)" fill="#030404" font-family="ArialMT, Arial" font-size="14.56"><tspan x="0" y="0">2 x SAR ADCs (12-ch) </tspan></text><rect x="636.8" y="561.32" width="309.17" height="42.93" fill="#6facde"/><text transform="translate(744.63 587.31)" fill="#030404" font-family="ArialMT, Arial" font-size="14.56"><tspan x="0" y="0">12 x FlexTimer</tspan></text><rect x="636.8" y="468.13" width="309.15" height="42.93" fill="#6facde"/><text transform="translate(735.72 541.93)" fill="#030404" font-family="ArialMT, Arial" font-size="14.56"><tspan x="0" y="0">8 x System Timer</tspan></text><text transform="translate(727.21 495.29)" fill="#030404" font-family="ArialMT, Arial" font-size="14.56"><tspan x="0" y="0">7 x Watchdog Timer</tspan></text><rect x="274.45" y="426.33" width="340.93" height="235.22" fill="#e8ecec"/><text transform="translate(353.66 455.61)" fill="#030404" font-family="Arial-BoldMT, Arial" font-size="17.47"><tspan x="0" y="0">Serial Communication</tspan></text><text transform="translate(590.9 359.53)" fill="#030404" font-family="Arial-BoldMT, Arial" font-size="17.47"><tspan x="0" y="0">Fabric</tspan></text><text transform="translate(538.59 379.91)" font-family="ArialMT, Arial" font-size="17.06"><tspan x="0" y="0"> </tspan></text><rect x="283.72" y="536.79" width="156.23" height="32.26" fill="#c6def0"/><text transform="translate(322.44 558.55)" fill="#030404" font-family="ArialMT, Arial" font-size="14.56"><tspan x="0" y="0">4 x CAN FD</tspan></text><rect x="450.04" y="536.79" width="156.5" height="32.26" fill="#c6def0"/><text transform="translate(483.6 557.84)" fill="#030404" font-family="ArialMT, Arial" font-size="14.56"><tspan x="0" y="0">3 x LIN/UART</tspan></text><rect x="283.72" y="466.74" width="156.23" height="32.26" fill="#c6def0"/><text transform="translate(337.8 488.49)" fill="#030404" font-family="ArialMT, Arial" font-size="14.56"><tspan x="0" y="0">6 x SPI</tspan></text><rect x="450.04" y="466.74" width="156.5" height="32.26" fill="#c6def0"/><text transform="translate(507.12 487.78)" fill="#030404" font-family="ArialMT, Arial" font-size="14.56"><tspan x="0" y="0">5 x I</tspan></text><text transform="translate(534.63 482.93) scale(.58)" fill="#030404" font-family="ArialMT, Arial" font-size="14.56"><tspan x="0" y="0">2</tspan></text><text transform="translate(539.35 487.78)" fill="#030404" font-family="ArialMT, Arial" font-size="14.56"><tspan x="0" y="0">C</tspan></text><text transform="translate(398.42 523.56)" fill="#030404" font-family="Arial-BoldMT, Arial" font-size="17.47"><tspan x="0" y="0">Networking</tspan></text><text transform="translate(490.8 514.83)" font-family="ArialMT, Arial" font-size="17.06"><tspan x="0" y="0"> </tspan></text><rect x="283.84" y="576.65" width="155.91" height="32.26" fill="#c6def0"/><text transform="translate(332.49 598.41)" fill="#030404" font-family="ArialMT, Arial" font-size="14.56"><tspan x="0" y="0">FlexRay</tspan></text><text transform="translate(385.87 593.56) scale(.58)" fill="#030404" font-family="ArialMT, Arial" font-size="14.56" letter-spacing="0em"><tspan x="0" y="0"></tspan></text><rect x="450.04" y="576.65" width="156.5" height="32.26" fill="#c6def0"/><text transform="translate(480.94 597.37)" fill="#030404" font-family="ArialMT, Arial" font-size="14.56"><tspan x="0" y="0">1-GbE w/ TSN</tspan></text><rect x="283.64" y="615.76" width="156.11" height="32.26" fill="#c6def0"/><text transform="translate(316.43 635.29)" fill="#030404" font-family="ArialMT, Arial" font-size="14.56"><tspan x="0" y="0">USB 2.0 OTG</tspan></text><rect x="450.04" y="615.76" width="156.5" height="32.26" fill="#c6def0"/><text transform="translate(487.76 636.68)" fill="#030404" font-family="ArialMT, Arial" font-size="14.56"><tspan x="0" y="0">2 x PCIe 3.0</tspan></text><g><g><rect x="306.88" y="86.14" width="150.06" height="121.76" fill="#e8ecec"/><rect x="312.83" y="92.62" width="138.81" height="36.04" fill="#c1cd23"/><rect x="383.96" y="132.12" width="67.4" height="33.26" fill="#c1cd23"/><rect x="383.96" y="168.49" width="67.4" height="33.26" fill="#c1cd23"/><rect x="312.73" y="132.12" width="67.4" height="33.26" fill="#c1cd23"/><rect x="312.73" y="168.49" width="67.4" height="33.26" fill="#c1cd23"/><text transform="translate(390.5 153.43)" fill="#030404" font-family="ArialMT, Arial" font-size="14.56"><tspan x="0" y="0">D-cache</tspan></text><text transform="translate(323.54 153.72)" fill="#030404" font-family="ArialMT, Arial" font-size="14.56"><tspan x="0" y="0">I-cache</tspan></text><text transform="translate(331.86 116.1)" fill="#030404" font-family="ArialMT, Arial" font-size="14.56"><tspan x="0" y="0">Arm Cortex-M7</tspan></text><text transform="translate(402.9 191.79)" fill="#030404" font-family="ArialMT, Arial" font-size="14.56"><tspan x="0" y="0">FPU</tspan></text><text transform="translate(331.95 190.44)" fill="#030404" font-family="ArialMT, Arial" font-size="14.56"><tspan x="0" y="0">TCM</tspan></text></g><g><rect x="357.18" y="119.68" width="150.06" height="121.76" fill="#e8ecec"/><rect x="363.14" y="126.17" width="138.81" height="36.04" fill="#c1cd23"/><rect x="434.27" y="165.67" width="67.4" height="33.26" fill="#c1cd23"/><rect x="434.27" y="202.03" width="67.4" height="33.26" fill="#c1cd23"/><rect x="363.04" y="165.67" width="67.4" height="33.26" fill="#c1cd23"/><rect x="363.04" y="202.03" width="67.4" height="33.26" fill="#c1cd23"/><text transform="translate(440.8 186.97)" fill="#030404" font-family="ArialMT, Arial" font-size="14.56"><tspan x="0" y="0">D-cache</tspan></text><text transform="translate(373.85 187.27)" fill="#030404" font-family="ArialMT, Arial" font-size="14.56"><tspan x="0" y="0">I-cache</tspan></text><text transform="translate(382.17 149.65)" fill="#030404" font-family="ArialMT, Arial" font-size="14.56"><tspan x="0" y="0">Arm Cortex-M7</tspan></text><text transform="translate(453.21 225.33)" fill="#030404" font-family="ArialMT, Arial" font-size="14.56"><tspan x="0" y="0">FPU</tspan></text><text transform="translate(382.25 223.99)" fill="#030404" font-family="ArialMT, Arial" font-size="14.56"><tspan x="0" y="0">TCM</tspan></text></g><g><rect x="407.49" y="153.23" width="150.06" height="121.76" fill="#e8ecec"/><rect x="413.45" y="159.71" width="138.81" height="36.04" fill="#c1cd23"/><rect x="484.57" y="199.21" width="67.4" height="33.26" fill="#c1cd23"/><rect x="484.57" y="235.58" width="67.4" height="33.26" fill="#c1cd23"/><rect x="413.35" y="199.21" width="67.4" height="33.26" fill="#c1cd23"/><rect x="413.35" y="235.58" width="67.4" height="33.26" fill="#c1cd23"/><text transform="translate(491.11 220.52)" fill="#030404" font-family="ArialMT, Arial" font-size="14.56"><tspan x="0" y="0">D-cache</tspan></text><text transform="translate(424.16 220.81)" fill="#030404" font-family="ArialMT, Arial" font-size="14.56"><tspan x="0" y="0">I-cache</tspan></text><text transform="translate(426.22 183.19)" fill="#030404" font-family="ArialMT, Arial" font-size="14.56"><tspan x="0" y="0">Arm</tspan></text><text transform="translate(452.91 178.34) scale(.58)" fill="#030404" font-family="ArialMT, Arial" font-size="14.56" letter-spacing="0em"><tspan x="0" y="0"></tspan></text><text transform="translate(459.16 183.19)" fill="#030404" font-family="ArialMT, Arial" font-size="14.56"><tspan x="0" y="0" xml:space="preserve"> Cortex</tspan></text><text transform="translate(506.08 178.34) scale(.58)" fill="#030404" font-family="ArialMT, Arial" font-size="14.56"><tspan x="0" y="0"></tspan></text><text transform="translate(512.33 183.19)" fill="#030404" font-family="ArialMT, Arial" font-size="14.56"><tspan x="0" y="0">-M7</tspan></text><text transform="translate(503.52 258.88)" fill="#030404" font-family="ArialMT, Arial" font-size="14.56"><tspan x="0" y="0">FPU</tspan></text><text transform="translate(432.56 257.53)" fill="#030404" font-family="ArialMT, Arial" font-size="14.56"><tspan x="0" y="0">TCM</tspan></text></g></g><g><g><rect x="292.32" y="71.58" width="150.06" height="121.76" fill="#e8ecec"/><rect x="298.28" y="78.07" width="138.81" height="36.04" fill="#c1cd23"/><rect x="369.4" y="117.57" width="67.4" height="33.26" fill="#c1cd23"/><rect x="369.4" y="153.93" width="67.4" height="33.26" fill="#c1cd23"/><rect x="298.18" y="117.57" width="67.4" height="33.26" fill="#c1cd23"/><rect x="298.18" y="153.93" width="67.4" height="33.26" fill="#c1cd23"/><text transform="translate(375.94 138.87)" fill="#030404" font-family="ArialMT, Arial" font-size="14.56"><tspan x="0" y="0">D-cache</tspan></text><text transform="translate(308.99 139.17)" fill="#030404" font-family="ArialMT, Arial" font-size="14.56"><tspan x="0" y="0">I-cache</tspan></text><text transform="translate(317.31 101.55)" fill="#030404" font-family="ArialMT, Arial" font-size="14.56"><tspan x="0" y="0">Arm Cortex-M7</tspan></text><text transform="translate(388.35 177.23)" fill="#030404" font-family="ArialMT, Arial" font-size="14.56"><tspan x="0" y="0">FPU</tspan></text><text transform="translate(317.39 175.89)" fill="#030404" font-family="ArialMT, Arial" font-size="14.56"><tspan x="0" y="0">TCM</tspan></text></g><g><rect x="342.63" y="105.13" width="150.06" height="121.76" fill="#e8ecec"/><rect x="348.58" y="111.61" width="138.81" height="36.04" fill="#c1cd23"/><rect x="419.71" y="151.11" width="67.4" height="33.26" fill="#c1cd23"/><rect x="419.71" y="187.48" width="67.4" height="33.26" fill="#c1cd23"/><rect x="348.48" y="151.11" width="67.4" height="33.26" fill="#c1cd23"/><rect x="348.48" y="187.48" width="67.4" height="33.26" fill="#c1cd23"/><text transform="translate(426.25 172.42)" fill="#030404" font-family="ArialMT, Arial" font-size="14.56"><tspan x="0" y="0">D-cache</tspan></text><text transform="translate(359.29 172.71)" fill="#030404" font-family="ArialMT, Arial" font-size="14.56"><tspan x="0" y="0">I-cache</tspan></text><text transform="translate(367.62 135.09)" fill="#030404" font-family="ArialMT, Arial" font-size="14.56"><tspan x="0" y="0">Arm Cortex-M7</tspan></text><text transform="translate(438.65 210.77)" fill="#030404" font-family="ArialMT, Arial" font-size="14.56"><tspan x="0" y="0">FPU</tspan></text><text transform="translate(367.7 209.43)" fill="#030404" font-family="ArialMT, Arial" font-size="14.56"><tspan x="0" y="0">TCM</tspan></text></g><g><rect x="392.93" y="138.67" width="150.06" height="121.76" fill="#e8ecec"/><rect x="398.89" y="145.16" width="138.81" height="36.04" fill="#c1cd23"/><rect x="470.02" y="184.66" width="67.4" height="33.26" fill="#c1cd23"/><rect x="470.02" y="221.02" width="67.4" height="33.26" fill="#c1cd23"/><rect x="398.79" y="184.66" width="67.4" height="33.26" fill="#c1cd23"/><rect x="398.79" y="221.02" width="67.4" height="33.26" fill="#c1cd23"/><text transform="translate(476.55 205.96)" fill="#030404" font-family="ArialMT, Arial" font-size="14.56"><tspan x="0" y="0">D-cache</tspan></text><text transform="translate(409.6 206.26)" fill="#030404" font-family="ArialMT, Arial" font-size="14.56"><tspan x="0" y="0">I-cache</tspan></text><text transform="translate(411.67 168.64)" fill="#030404" font-family="ArialMT, Arial" font-size="14.56"><tspan x="0" y="0">Arm</tspan></text><text transform="translate(438.35 163.79) scale(.58)" fill="#030404" font-family="ArialMT, Arial" font-size="14.56" letter-spacing="0em"><tspan x="0" y="0"></tspan></text><text transform="translate(444.61 168.64)" fill="#030404" font-family="ArialMT, Arial" font-size="14.56"><tspan x="0" y="0" xml:space="preserve"> Cortex</tspan></text><text transform="translate(491.53 163.79) scale(.58)" fill="#030404" font-family="ArialMT, Arial" font-size="14.56"><tspan x="0" y="0"></tspan></text><text transform="translate(497.78 168.64)" fill="#030404" font-family="ArialMT, Arial" font-size="14.56"><tspan x="0" y="0">-M7</tspan></text><text transform="translate(488.96 244.32)" fill="#030404" font-family="ArialMT, Arial" font-size="14.56"><tspan x="0" y="0">FPU</tspan></text><text transform="translate(418 242.98)" fill="#030404" font-family="ArialMT, Arial" font-size="14.56"><tspan x="0" y="0">TCM</tspan></text></g></g><rect x="763.48" y="63.89" width="183.04" height="220.37" fill="#dce194"/><g><rect x="772.57" y="76.43" width="149.71" height="161.22" fill="#e8ecec"/><rect x="779.13" y="86.31" width="137.02" height="30.21" fill="#c1cd23"/><rect x="779.13" y="122.02" width="68.76" height="39.71" fill="#c1cd23"/><rect x="850.75" y="121.95" width="65.41" height="39.09" fill="#c1cd23"/><text transform="translate(875.33 138.32)" fill="#030404" font-family="ArialMT, Arial" font-size="14.56"><tspan x="0" y="0">L1</tspan><tspan x="-19.01" y="17.47">D-cache</tspan></text><text transform="translate(806.43 138.62)" fill="#030404" font-family="ArialMT, Arial" font-size="14.56"><tspan x="0" y="0">L1</tspan><tspan x="-15.77" y="17.47">I-cache</tspan></text><text transform="translate(795.81 105.43)" fill="#030404" font-family="ArialMT, Arial" font-size="14.56"><tspan x="0" y="0">Arm Cortex-A53</tspan></text><rect x="779.96" y="166.12" width="136.2" height="24.66" fill="#c1cd23"/><text transform="translate(831.52 184.02)" fill="#030404" font-family="ArialMT, Arial" font-size="14.56"><tspan x="0" y="0">Neon</tspan></text><rect x="779.13" y="195.94" width="137.02" height="34.18" fill="#c1cd23"/><text transform="translate(790.87 218.68)" fill="#030404" font-family="ArialMT, Arial" font-size="14.56"><tspan x="0" y="0">Shared L2 Cache</tspan></text></g><g><rect x="788.39" y="109.2" width="149.71" height="161.22" fill="#e8ecec"/><rect x="794.96" y="119.09" width="137.02" height="30.21" fill="#c1cd23"/><rect x="794.96" y="154.79" width="68.76" height="39.71" fill="#c1cd23"/><rect x="866.57" y="154.73" width="65.41" height="39.09" fill="#c1cd23"/><text transform="translate(891.16 171.1)" fill="#030404" font-family="ArialMT, Arial" font-size="14.56"><tspan x="0" y="0">L1</tspan><tspan x="-19.01" y="17.47">D-cache</tspan></text><text transform="translate(822.25 171.4)" fill="#030404" font-family="ArialMT, Arial" font-size="14.56"><tspan x="0" y="0">L1</tspan><tspan x="-15.77" y="17.47">I-cache</tspan></text><text transform="translate(811.63 138.21)" fill="#030404" font-family="ArialMT, Arial" font-size="14.56"><tspan x="0" y="0">Arm Cortex-A53</tspan></text><rect x="795.78" y="198.9" width="136.2" height="24.66" fill="#c1cd23"/><text transform="translate(847.35 216.8)" fill="#030404" font-family="ArialMT, Arial" font-size="14.56"><tspan x="0" y="0">Neon</tspan></text><rect x="794.96" y="228.72" width="137.02" height="34.18" fill="#c1cd23"/><text transform="translate(806.7 251.45)" fill="#030404" font-family="ArialMT, Arial" font-size="14.56"><tspan x="0" y="0">Shared L2 Cache</tspan></text></g><g><rect x="583.82" y="76.43" width="149.71" height="161.22" fill="#e8ecec"/><rect x="590.38" y="86.31" width="137.02" height="30.21" fill="#c1cd23"/><rect x="590.38" y="122.02" width="68.76" height="39.71" fill="#c1cd23"/><rect x="662" y="121.95" width="65.41" height="39.09" fill="#c1cd23"/><text transform="translate(686.58 138.32)" fill="#030404" font-family="ArialMT, Arial" font-size="14.56"><tspan x="0" y="0">L1</tspan><tspan x="-19.01" y="17.47">D-cache</tspan></text><text transform="translate(617.68 138.62)" fill="#030404" font-family="ArialMT, Arial" font-size="14.56"><tspan x="0" y="0">L1</tspan><tspan x="-15.77" y="17.47">I-cache</tspan></text><text transform="translate(607.06 105.43)" fill="#030404" font-family="ArialMT, Arial" font-size="14.56"><tspan x="0" y="0">Arm Cortex-A53</tspan></text><rect x="591.21" y="166.12" width="136.2" height="24.66" fill="#c1cd23"/><text transform="translate(642.77 184.02)" fill="#030404" font-family="ArialMT, Arial" font-size="14.56"><tspan x="0" y="0">Neon</tspan></text><rect x="590.38" y="195.94" width="137.02" height="34.18" fill="#c1cd23"/><text transform="translate(602.12 218.68)" fill="#030404" font-family="ArialMT, Arial" font-size="14.56"><tspan x="0" y="0">Shared L2 Cache</tspan></text></g><g><rect x="599.64" y="109.2" width="149.71" height="161.22" fill="#e8ecec"/><rect x="606.2" y="119.09" width="137.02" height="30.21" fill="#c1cd23"/><rect x="606.2" y="154.79" width="68.76" height="39.71" fill="#c1cd23"/><rect x="677.82" y="154.73" width="65.41" height="39.09" fill="#c1cd23"/><text transform="translate(702.41 171.1)" fill="#030404" font-family="ArialMT, Arial" font-size="14.56"><tspan x="0" y="0">L1</tspan><tspan x="-19.01" y="17.47">D-cache</tspan></text><text transform="translate(633.5 171.4)" fill="#030404" font-family="ArialMT, Arial" font-size="14.56"><tspan x="0" y="0">L1</tspan><tspan x="-15.77" y="17.47">I-cache</tspan></text><text transform="translate(622.88 138.21)" fill="#030404" font-family="ArialMT, Arial" font-size="14.56"><tspan x="0" y="0">Arm Cortex-A53</tspan></text><rect x="607.03" y="198.9" width="136.2" height="24.66" fill="#c1cd23"/><text transform="translate(652.47 216.8)" fill="#030404" font-family="ArialMT, Arial" font-size="14.56"><tspan x="0" y="0">Neon</tspan></text><text transform="translate(687.27 211.95) scale(.58)" fill="#030404" font-family="ArialMT, Arial" font-size="14.56"><tspan x="0" y="0">TM</tspan></text><rect x="606.2" y="228.72" width="137.02" height="34.18" fill="#c1cd23"/><text transform="translate(617.95 251.45)" fill="#030404" font-family="ArialMT, Arial" font-size="14.56"><tspan x="0" y="0">Shared L2 Cache</tspan></text></g></g></svg>